{
	"asset":{
		"generator":"Khronos glTF Blender I/O v4.5.49",
		"version":"2.0"
	},
	"scene":0,
	"scenes":[
		{
			"name":"Scene",
			"nodes":[
				0
			]
		}
	],
	"nodes":[
		{
			"mesh":0,
			"name":"default9_Material_0",
			"scale":[
				0.009999999776482582,
				0.010000001639127731,
				0.010000001639127731
			]
		}
	],
	"materials":[
		{
			"doubleSided":true,
			"name":"Material.002",
			"pbrMetallicRoughness":{
				"baseColorTexture":{
					"index":0
				},
				"metallicRoughnessTexture":{
					"index":1
				}
			}
		}
	],
	"meshes":[
		{
			"name":"default9_Material_0.001",
			"primitives":[
				{
					"attributes":{
						"POSITION":0,
						"NORMAL":1,
						"TEXCOORD_0":2,
						"TEXCOORD_1":3,
						"TEXCOORD_2":4,
						"TEXCOORD_3":5,
						"TEXCOORD_4":6,
						"TEXCOORD_5":7,
						"TEXCOORD_6":8,
						"TEXCOORD_7":9
					},
					"indices":10,
					"material":0
				}
			]
		}
	],
	"textures":[
		{
			"sampler":0,
			"source":0
		},
		{
			"sampler":0,
			"source":1
		}
	],
	"images":[
		{
			"mimeType":"image/jpeg",
			"name":"Material_baseColor",
			"uri":"Material_baseColor.jpg"
		},
		{
			"mimeType":"image/jpeg",
			"name":"Material_metallicRoughness",
			"uri":"Material_metallicRoughness.jpg"
		}
	],
	"accessors":[
		{
			"bufferView":0,
			"componentType":5126,
			"count":3000,
			"max":[
				0.589838981628418,
				0.2576335072517395,
				0.5955001711845398
			],
			"min":[
				-0.6100113391876221,
				-0.018150636926293373,
				-0.5580648183822632
			],
			"type":"VEC3"
		},
		{
			"bufferView":1,
			"componentType":5126,
			"count":3000,
			"type":"VEC3"
		},
		{
			"bufferView":2,
			"componentType":5126,
			"count":3000,
			"type":"VEC2"
		},
		{
			"bufferView":3,
			"componentType":5126,
			"count":3000,
			"type":"VEC2"
		},
		{
			"bufferView":4,
			"componentType":5126,
			"count":3000,
			"type":"VEC2"
		},
		{
			"bufferView":5,
			"componentType":5126,
			"count":3000,
			"type":"VEC2"
		},
		{
			"bufferView":6,
			"componentType":5126,
			"count":3000,
			"type":"VEC2"
		},
		{
			"bufferView":7,
			"componentType":5126,
			"count":3000,
			"type":"VEC2"
		},
		{
			"bufferView":8,
			"componentType":5126,
			"count":3000,
			"type":"VEC2"
		},
		{
			"bufferView":9,
			"componentType":5126,
			"count":3000,
			"type":"VEC2"
		},
		{
			"bufferView":10,
			"componentType":5123,
			"count":3897,
			"type":"SCALAR"
		}
	],
	"bufferViews":[
		{
			"buffer":0,
			"byteLength":36000,
			"byteOffset":0,
			"target":34962
		},
		{
			"buffer":0,
			"byteLength":36000,
			"byteOffset":36000,
			"target":34962
		},
		{
			"buffer":0,
			"byteLength":24000,
			"byteOffset":72000,
			"target":34962
		},
		{
			"buffer":0,
			"byteLength":24000,
			"byteOffset":96000,
			"target":34962
		},
		{
			"buffer":0,
			"byteLength":24000,
			"byteOffset":120000,
			"target":34962
		},
		{
			"buffer":0,
			"byteLength":24000,
			"byteOffset":144000,
			"target":34962
		},
		{
			"buffer":0,
			"byteLength":24000,
			"byteOffset":168000,
			"target":34962
		},
		{
			"buffer":0,
			"byteLength":24000,
			"byteOffset":192000,
			"target":34962
		},
		{
			"buffer":0,
			"byteLength":24000,
			"byteOffset":216000,
			"target":34962
		},
		{
			"buffer":0,
			"byteLength":24000,
			"byteOffset":240000,
			"target":34962
		},
		{
			"buffer":0,
			"byteLength":7794,
			"byteOffset":264000,
			"target":34963
		}
	],
	"samplers":[
		{
			"magFilter":9729,
			"minFilter":9987
		}
	],
	"buffers":[
		{
			"byteLength":271796,
			"uri":"optimizeGrass.bin"
		}
	]
}
