{
	"asset":{
		"generator":"Khronos glTF Blender I/O v4.5.49",
		"version":"2.0"
	},
	"scene":0,
	"scenes":[
		{
			"name":"Scene",
			"nodes":[
				0
			]
		}
	],
	"nodes":[
		{
			"mesh":0,
			"name":"default9_Material_0"
		}
	],
	"materials":[
		{
			"doubleSided":true,
			"name":"Material.001",
			"pbrMetallicRoughness":{
				"baseColorTexture":{
					"index":0
				},
				"metallicFactor":0,
				"roughnessFactor":0.8999999761581421
			}
		}
	],
	"meshes":[
		{
			"name":"default9_Material_0.001",
			"primitives":[
				{
					"attributes":{
						"POSITION":0,
						"NORMAL":1,
						"TEXCOORD_0":2,
						"TEXCOORD_1":3,
						"TEXCOORD_2":4,
						"TEXCOORD_3":5,
						"TEXCOORD_4":6,
						"TEXCOORD_5":7,
						"TEXCOORD_6":8,
						"TEXCOORD_7":9
					},
					"indices":10,
					"material":0
				}
			]
		}
	],
	"textures":[
		{
			"sampler":0,
			"source":0
		}
	],
	"images":[
		{
			"mimeType":"image/jpeg",
			"name":"Material_baseColor",
			"uri":"Material_baseColor.jpg"
		}
	],
	"accessors":[
		{
			"bufferView":0,
			"componentType":5126,
			"count":9371,
			"max":[
				0.5992547869682312,
				0.2576335072517395,
				0.5985276103019714
			],
			"min":[
				-0.6098929047584534,
				-0.020417705178260803,
				-0.561741292476654
			],
			"type":"VEC3"
		},
		{
			"bufferView":1,
			"componentType":5126,
			"count":9371,
			"type":"VEC3"
		},
		{
			"bufferView":2,
			"componentType":5126,
			"count":9371,
			"type":"VEC2"
		},
		{
			"bufferView":3,
			"componentType":5126,
			"count":9371,
			"type":"VEC2"
		},
		{
			"bufferView":4,
			"componentType":5126,
			"count":9371,
			"type":"VEC2"
		},
		{
			"bufferView":5,
			"componentType":5126,
			"count":9371,
			"type":"VEC2"
		},
		{
			"bufferView":6,
			"componentType":5126,
			"count":9371,
			"type":"VEC2"
		},
		{
			"bufferView":7,
			"componentType":5126,
			"count":9371,
			"type":"VEC2"
		},
		{
			"bufferView":8,
			"componentType":5126,
			"count":9371,
			"type":"VEC2"
		},
		{
			"bufferView":9,
			"componentType":5126,
			"count":9371,
			"type":"VEC2"
		},
		{
			"bufferView":10,
			"componentType":5123,
			"count":19200,
			"type":"SCALAR"
		}
	],
	"bufferViews":[
		{
			"buffer":0,
			"byteLength":112452,
			"byteOffset":0,
			"target":34962
		},
		{
			"buffer":0,
			"byteLength":112452,
			"byteOffset":112452,
			"target":34962
		},
		{
			"buffer":0,
			"byteLength":74968,
			"byteOffset":224904,
			"target":34962
		},
		{
			"buffer":0,
			"byteLength":74968,
			"byteOffset":299872,
			"target":34962
		},
		{
			"buffer":0,
			"byteLength":74968,
			"byteOffset":374840,
			"target":34962
		},
		{
			"buffer":0,
			"byteLength":74968,
			"byteOffset":449808,
			"target":34962
		},
		{
			"buffer":0,
			"byteLength":74968,
			"byteOffset":524776,
			"target":34962
		},
		{
			"buffer":0,
			"byteLength":74968,
			"byteOffset":599744,
			"target":34962
		},
		{
			"buffer":0,
			"byteLength":74968,
			"byteOffset":674712,
			"target":34962
		},
		{
			"buffer":0,
			"byteLength":74968,
			"byteOffset":749680,
			"target":34962
		},
		{
			"buffer":0,
			"byteLength":38400,
			"byteOffset":824648,
			"target":34963
		}
	],
	"samplers":[
		{
			"magFilter":9729,
			"minFilter":9987
		}
	],
	"buffers":[
		{
			"byteLength":863048,
			"uri":"StylizedGrass.bin"
		}
	]
}
