{
	"asset":{
		"generator":"Khronos glTF Blender I/O v3.6.27",
		"version":"2.0"
	},
	"extensionsUsed":[
		"KHR_materials_specular"
	],
	"scene":0,
	"scenes":[
		{
			"name":"Scene",
			"nodes":[
				0
			]
		}
	],
	"nodes":[
		{
			"mesh":0,
			"name":"default3_Material_0"
		}
	],
	"materials":[
		{
			"doubleSided":true,
			"extensions":{
				"KHR_materials_specular":{
					"specularColorTexture":{
						"index":0
					},
					"specularColorFactor":[
						2.2286262512207027,
						1.3594839572906492,
						2.5894377231597896
					]
				}
			},
			"name":"Material.008",
			"pbrMetallicRoughness":{
				"baseColorTexture":{
					"index":1
				},
				"metallicFactor":0,
				"roughnessFactor":0.800000011920929
			}
		}
	],
	"meshes":[
		{
			"name":"default3_Material_0",
			"primitives":[
				{
					"attributes":{
						"POSITION":0,
						"NORMAL":1,
						"TEXCOORD_0":2,
						"TEXCOORD_1":3,
						"TEXCOORD_2":4,
						"TEXCOORD_3":5,
						"TEXCOORD_4":6,
						"TEXCOORD_5":7,
						"TEXCOORD_6":8,
						"TEXCOORD_7":9
					},
					"indices":10,
					"material":0
				}
			]
		}
	],
	"textures":[
		{
			"sampler":0,
			"source":0
		},
		{
			"sampler":0,
			"source":1
		}
	],
	"images":[
		{
			"mimeType":"image/png",
			"name":"Image",
			"uri":"Image.png"
		},
		{
			"mimeType":"image/jpeg",
			"name":"Material_baseColor",
			"uri":"Material_baseColor.jpg"
		}
	],
	"accessors":[
		{
			"bufferView":0,
			"componentType":5126,
			"count":2393,
			"max":[
				0.8870488405227661,
				6.398717880249023,
				0.7832624912261963
			],
			"min":[
				-1.0217021703720093,
				-0.06572099775075912,
				-0.9951953887939453
			],
			"type":"VEC3"
		},
		{
			"bufferView":1,
			"componentType":5126,
			"count":2393,
			"type":"VEC3"
		},
		{
			"bufferView":2,
			"componentType":5126,
			"count":2393,
			"type":"VEC2"
		},
		{
			"bufferView":3,
			"componentType":5126,
			"count":2393,
			"type":"VEC2"
		},
		{
			"bufferView":4,
			"componentType":5126,
			"count":2393,
			"type":"VEC2"
		},
		{
			"bufferView":5,
			"componentType":5126,
			"count":2393,
			"type":"VEC2"
		},
		{
			"bufferView":6,
			"componentType":5126,
			"count":2393,
			"type":"VEC2"
		},
		{
			"bufferView":7,
			"componentType":5126,
			"count":2393,
			"type":"VEC2"
		},
		{
			"bufferView":8,
			"componentType":5126,
			"count":2393,
			"type":"VEC2"
		},
		{
			"bufferView":9,
			"componentType":5126,
			"count":2393,
			"type":"VEC2"
		},
		{
			"bufferView":10,
			"componentType":5123,
			"count":6096,
			"type":"SCALAR"
		}
	],
	"bufferViews":[
		{
			"buffer":0,
			"byteLength":28716,
			"byteOffset":0,
			"target":34962
		},
		{
			"buffer":0,
			"byteLength":28716,
			"byteOffset":28716,
			"target":34962
		},
		{
			"buffer":0,
			"byteLength":19144,
			"byteOffset":57432,
			"target":34962
		},
		{
			"buffer":0,
			"byteLength":19144,
			"byteOffset":76576,
			"target":34962
		},
		{
			"buffer":0,
			"byteLength":19144,
			"byteOffset":95720,
			"target":34962
		},
		{
			"buffer":0,
			"byteLength":19144,
			"byteOffset":114864,
			"target":34962
		},
		{
			"buffer":0,
			"byteLength":19144,
			"byteOffset":134008,
			"target":34962
		},
		{
			"buffer":0,
			"byteLength":19144,
			"byteOffset":153152,
			"target":34962
		},
		{
			"buffer":0,
			"byteLength":19144,
			"byteOffset":172296,
			"target":34962
		},
		{
			"buffer":0,
			"byteLength":19144,
			"byteOffset":191440,
			"target":34962
		},
		{
			"buffer":0,
			"byteLength":12192,
			"byteOffset":210584,
			"target":34963
		}
	],
	"samplers":[
		{
			"magFilter":9729,
			"minFilter":9987
		}
	],
	"buffers":[
		{
			"byteLength":222776,
			"uri":"Tree02.bin"
		}
	]
}
