{
	"asset":{
		"generator":"Khronos glTF Blender I/O v3.6.27",
		"version":"2.0"
	},
	"extensionsUsed":[
		"KHR_materials_specular"
	],
	"scene":0,
	"scenes":[
		{
			"name":"Scene",
			"nodes":[
				0
			]
		}
	],
	"nodes":[
		{
			"mesh":0,
			"name":"default2_Material_0",
			"scale":[
				0.009999999776482582,
				0.010000001639127731,
				0.010000001639127731
			]
		}
	],
	"materials":[
		{
			"doubleSided":true,
			"extensions":{
				"KHR_materials_specular":{
					"specularColorFactor":[
						0,
						0,
						0
					]
				}
			},
			"name":"Material.001",
			"pbrMetallicRoughness":{
				"baseColorTexture":{
					"index":0
				},
				"metallicFactor":0,
				"roughnessFactor":0.8057142496109009
			}
		}
	],
	"meshes":[
		{
			"name":"default2_Material_0",
			"primitives":[
				{
					"attributes":{
						"POSITION":0,
						"NORMAL":1,
						"TEXCOORD_0":2,
						"TEXCOORD_1":3,
						"TEXCOORD_2":4,
						"TEXCOORD_3":5,
						"TEXCOORD_4":6,
						"TEXCOORD_5":7,
						"TEXCOORD_6":8,
						"TEXCOORD_7":9
					},
					"indices":10,
					"material":0
				}
			]
		}
	],
	"textures":[
		{
			"sampler":0,
			"source":0
		}
	],
	"images":[
		{
			"mimeType":"image/jpeg",
			"name":"Material_baseColor",
			"uri":"Material_baseColor.jpg"
		}
	],
	"accessors":[
		{
			"bufferView":0,
			"componentType":5126,
			"count":1744,
			"max":[
				1.2721600532531738,
				6.820639133453369,
				1.262500286102295
			],
			"min":[
				-1.1650171279907227,
				-0.07005400210618973,
				-1.417299747467041
			],
			"type":"VEC3"
		},
		{
			"bufferView":1,
			"componentType":5126,
			"count":1744,
			"type":"VEC3"
		},
		{
			"bufferView":2,
			"componentType":5126,
			"count":1744,
			"type":"VEC2"
		},
		{
			"bufferView":3,
			"componentType":5126,
			"count":1744,
			"type":"VEC2"
		},
		{
			"bufferView":4,
			"componentType":5126,
			"count":1744,
			"type":"VEC2"
		},
		{
			"bufferView":5,
			"componentType":5126,
			"count":1744,
			"type":"VEC2"
		},
		{
			"bufferView":6,
			"componentType":5126,
			"count":1744,
			"type":"VEC2"
		},
		{
			"bufferView":7,
			"componentType":5126,
			"count":1744,
			"type":"VEC2"
		},
		{
			"bufferView":8,
			"componentType":5126,
			"count":1744,
			"type":"VEC2"
		},
		{
			"bufferView":9,
			"componentType":5126,
			"count":1744,
			"type":"VEC2"
		},
		{
			"bufferView":10,
			"componentType":5123,
			"count":4080,
			"type":"SCALAR"
		}
	],
	"bufferViews":[
		{
			"buffer":0,
			"byteLength":20928,
			"byteOffset":0,
			"target":34962
		},
		{
			"buffer":0,
			"byteLength":20928,
			"byteOffset":20928,
			"target":34962
		},
		{
			"buffer":0,
			"byteLength":13952,
			"byteOffset":41856,
			"target":34962
		},
		{
			"buffer":0,
			"byteLength":13952,
			"byteOffset":55808,
			"target":34962
		},
		{
			"buffer":0,
			"byteLength":13952,
			"byteOffset":69760,
			"target":34962
		},
		{
			"buffer":0,
			"byteLength":13952,
			"byteOffset":83712,
			"target":34962
		},
		{
			"buffer":0,
			"byteLength":13952,
			"byteOffset":97664,
			"target":34962
		},
		{
			"buffer":0,
			"byteLength":13952,
			"byteOffset":111616,
			"target":34962
		},
		{
			"buffer":0,
			"byteLength":13952,
			"byteOffset":125568,
			"target":34962
		},
		{
			"buffer":0,
			"byteLength":13952,
			"byteOffset":139520,
			"target":34962
		},
		{
			"buffer":0,
			"byteLength":8160,
			"byteOffset":153472,
			"target":34963
		}
	],
	"samplers":[
		{
			"magFilter":9729,
			"minFilter":9987
		}
	],
	"buffers":[
		{
			"byteLength":161632,
			"uri":"Tree01.bin"
		}
	]
}
