{
	"asset":{
		"generator":"Khronos glTF Blender I/O v3.6.27",
		"version":"2.0"
	},
	"extensionsUsed":[
		"KHR_materials_specular"
	],
	"scene":0,
	"scenes":[
		{
			"name":"Scene",
			"nodes":[
				0
			]
		}
	],
	"nodes":[
		{
			"mesh":0,
			"name":"default4_Material_0"
		}
	],
	"materials":[
		{
			"doubleSided":true,
			"extensions":{
				"KHR_materials_specular":{
					"specularColorTexture":{
						"index":0
					},
					"specularColorFactor":[
						2.2286262512207027,
						1.3594839572906492,
						2.5894377231597896
					]
				}
			},
			"name":"Material.004",
			"pbrMetallicRoughness":{
				"baseColorTexture":{
					"index":1
				},
				"metallicFactor":0,
				"roughnessFactor":0.800000011920929
			}
		}
	],
	"meshes":[
		{
			"name":"default4_Material_0",
			"primitives":[
				{
					"attributes":{
						"POSITION":0,
						"NORMAL":1,
						"TEXCOORD_0":2,
						"TEXCOORD_1":3,
						"TEXCOORD_2":4,
						"TEXCOORD_3":5,
						"TEXCOORD_4":6,
						"TEXCOORD_5":7,
						"TEXCOORD_6":8,
						"TEXCOORD_7":9
					},
					"indices":10,
					"material":0
				}
			]
		}
	],
	"textures":[
		{
			"sampler":0,
			"source":0
		},
		{
			"sampler":0,
			"source":1
		}
	],
	"images":[
		{
			"mimeType":"image/png",
			"name":"Image",
			"uri":"Image.png"
		},
		{
			"mimeType":"image/jpeg",
			"name":"Material_baseColor",
			"uri":"Material_baseColor.jpg"
		}
	],
	"accessors":[
		{
			"bufferView":0,
			"componentType":5126,
			"count":2501,
			"max":[
				1.1046741008758545,
				6.018517017364502,
				1.1444685459136963
			],
			"min":[
				-1.0458858013153076,
				-0.06181500107049942,
				-1.1939547061920166
			],
			"type":"VEC3"
		},
		{
			"bufferView":1,
			"componentType":5126,
			"count":2501,
			"type":"VEC3"
		},
		{
			"bufferView":2,
			"componentType":5126,
			"count":2501,
			"type":"VEC2"
		},
		{
			"bufferView":3,
			"componentType":5126,
			"count":2501,
			"type":"VEC2"
		},
		{
			"bufferView":4,
			"componentType":5126,
			"count":2501,
			"type":"VEC2"
		},
		{
			"bufferView":5,
			"componentType":5126,
			"count":2501,
			"type":"VEC2"
		},
		{
			"bufferView":6,
			"componentType":5126,
			"count":2501,
			"type":"VEC2"
		},
		{
			"bufferView":7,
			"componentType":5126,
			"count":2501,
			"type":"VEC2"
		},
		{
			"bufferView":8,
			"componentType":5126,
			"count":2501,
			"type":"VEC2"
		},
		{
			"bufferView":9,
			"componentType":5126,
			"count":2501,
			"type":"VEC2"
		},
		{
			"bufferView":10,
			"componentType":5123,
			"count":6432,
			"type":"SCALAR"
		}
	],
	"bufferViews":[
		{
			"buffer":0,
			"byteLength":30012,
			"byteOffset":0,
			"target":34962
		},
		{
			"buffer":0,
			"byteLength":30012,
			"byteOffset":30012,
			"target":34962
		},
		{
			"buffer":0,
			"byteLength":20008,
			"byteOffset":60024,
			"target":34962
		},
		{
			"buffer":0,
			"byteLength":20008,
			"byteOffset":80032,
			"target":34962
		},
		{
			"buffer":0,
			"byteLength":20008,
			"byteOffset":100040,
			"target":34962
		},
		{
			"buffer":0,
			"byteLength":20008,
			"byteOffset":120048,
			"target":34962
		},
		{
			"buffer":0,
			"byteLength":20008,
			"byteOffset":140056,
			"target":34962
		},
		{
			"buffer":0,
			"byteLength":20008,
			"byteOffset":160064,
			"target":34962
		},
		{
			"buffer":0,
			"byteLength":20008,
			"byteOffset":180072,
			"target":34962
		},
		{
			"buffer":0,
			"byteLength":20008,
			"byteOffset":200080,
			"target":34962
		},
		{
			"buffer":0,
			"byteLength":12864,
			"byteOffset":220088,
			"target":34963
		}
	],
	"samplers":[
		{
			"magFilter":9729,
			"minFilter":9987
		}
	],
	"buffers":[
		{
			"byteLength":232952,
			"uri":"Tree03.bin"
		}
	]
}
