{
	"asset":{
		"generator":"Khronos glTF Blender I/O v3.6.27",
		"version":"2.0"
	},
	"scene":0,
	"scenes":[
		{
			"name":"Scene",
			"nodes":[
				0
			]
		}
	],
	"nodes":[
		{
			"mesh":0,
			"name":"default22_Material_0",
			"scale":[
				0.009999999776482582,
				0.010000001639127731,
				0.010000001639127731
			]
		}
	],
	"materials":[
		{
			"doubleSided":true,
			"name":"Material.003",
			"pbrMetallicRoughness":{
				"baseColorTexture":{
					"index":0
				},
				"metallicFactor":0
			}
		}
	],
	"meshes":[
		{
			"name":"default22_Material_0",
			"primitives":[
				{
					"attributes":{
						"POSITION":0,
						"NORMAL":1,
						"TEXCOORD_0":2,
						"TEXCOORD_1":3,
						"TEXCOORD_2":4,
						"TEXCOORD_3":5,
						"TEXCOORD_4":6,
						"TEXCOORD_5":7,
						"TEXCOORD_6":8,
						"TEXCOORD_7":9
					},
					"indices":10,
					"material":0
				}
			]
		}
	],
	"textures":[
		{
			"sampler":0,
			"source":0
		}
	],
	"images":[
		{
			"mimeType":"image/jpeg",
			"name":"Material_baseColor",
			"uri":"Material_baseColor.jpg"
		}
	],
	"accessors":[
		{
			"bufferView":0,
			"componentType":5126,
			"count":1963,
			"max":[
				0.8319094181060791,
				1.5656559467315674,
				0.6890354156494141
			],
			"min":[
				-0.7838444709777832,
				-0.07156900316476822,
				-0.6425657272338867
			],
			"type":"VEC3"
		},
		{
			"bufferView":1,
			"componentType":5126,
			"count":1963,
			"type":"VEC3"
		},
		{
			"bufferView":2,
			"componentType":5126,
			"count":1963,
			"type":"VEC2"
		},
		{
			"bufferView":3,
			"componentType":5126,
			"count":1963,
			"type":"VEC2"
		},
		{
			"bufferView":4,
			"componentType":5126,
			"count":1963,
			"type":"VEC2"
		},
		{
			"bufferView":5,
			"componentType":5126,
			"count":1963,
			"type":"VEC2"
		},
		{
			"bufferView":6,
			"componentType":5126,
			"count":1963,
			"type":"VEC2"
		},
		{
			"bufferView":7,
			"componentType":5126,
			"count":1963,
			"type":"VEC2"
		},
		{
			"bufferView":8,
			"componentType":5126,
			"count":1963,
			"type":"VEC2"
		},
		{
			"bufferView":9,
			"componentType":5126,
			"count":1963,
			"type":"VEC2"
		},
		{
			"bufferView":10,
			"componentType":5123,
			"count":6138,
			"type":"SCALAR"
		}
	],
	"bufferViews":[
		{
			"buffer":0,
			"byteLength":23556,
			"byteOffset":0,
			"target":34962
		},
		{
			"buffer":0,
			"byteLength":23556,
			"byteOffset":23556,
			"target":34962
		},
		{
			"buffer":0,
			"byteLength":15704,
			"byteOffset":47112,
			"target":34962
		},
		{
			"buffer":0,
			"byteLength":15704,
			"byteOffset":62816,
			"target":34962
		},
		{
			"buffer":0,
			"byteLength":15704,
			"byteOffset":78520,
			"target":34962
		},
		{
			"buffer":0,
			"byteLength":15704,
			"byteOffset":94224,
			"target":34962
		},
		{
			"buffer":0,
			"byteLength":15704,
			"byteOffset":109928,
			"target":34962
		},
		{
			"buffer":0,
			"byteLength":15704,
			"byteOffset":125632,
			"target":34962
		},
		{
			"buffer":0,
			"byteLength":15704,
			"byteOffset":141336,
			"target":34962
		},
		{
			"buffer":0,
			"byteLength":15704,
			"byteOffset":157040,
			"target":34962
		},
		{
			"buffer":0,
			"byteLength":12276,
			"byteOffset":172744,
			"target":34963
		}
	],
	"samplers":[
		{
			"magFilter":9729,
			"minFilter":9987
		}
	],
	"buffers":[
		{
			"byteLength":185020,
			"uri":"WhiteCosmos.bin"
		}
	]
}
