{
	"asset":{
		"generator":"Khronos glTF Blender I/O v3.6.27",
		"version":"2.0"
	},
	"scene":0,
	"scenes":[
		{
			"name":"Scene",
			"nodes":[
				0
			]
		}
	],
	"nodes":[
		{
			"mesh":0,
			"name":"default23_Material_0",
			"scale":[
				0.009999999776482582,
				0.010000001639127731,
				0.010000001639127731
			]
		}
	],
	"materials":[
		{
			"doubleSided":true,
			"name":"Material.001",
			"pbrMetallicRoughness":{
				"baseColorTexture":{
					"index":0
				},
				"metallicRoughnessTexture":{
					"index":1
				}
			}
		}
	],
	"meshes":[
		{
			"name":"default23_Material_0",
			"primitives":[
				{
					"attributes":{
						"POSITION":0,
						"NORMAL":1,
						"TEXCOORD_0":2,
						"TEXCOORD_1":3,
						"TEXCOORD_2":4,
						"TEXCOORD_3":5,
						"TEXCOORD_4":6,
						"TEXCOORD_5":7,
						"TEXCOORD_6":8,
						"TEXCOORD_7":9
					},
					"indices":10,
					"material":0
				}
			]
		}
	],
	"textures":[
		{
			"sampler":0,
			"source":0
		},
		{
			"sampler":0,
			"source":1
		}
	],
	"images":[
		{
			"mimeType":"image/jpeg",
			"name":"Material_baseColor",
			"uri":"Material_baseColor.jpg"
		},
		{
			"mimeType":"image/jpeg",
			"name":"Material_metallicRoughness",
			"uri":"Material_metallicRoughness.jpg"
		}
	],
	"accessors":[
		{
			"bufferView":0,
			"componentType":5126,
			"count":1390,
			"max":[
				0.8640279769897461,
				2.6243081092834473,
				0.6217093467712402
			],
			"min":[
				-0.9937677383422852,
				-0.05701899901032448,
				-0.7523195743560791
			],
			"type":"VEC3"
		},
		{
			"bufferView":1,
			"componentType":5126,
			"count":1390,
			"type":"VEC3"
		},
		{
			"bufferView":2,
			"componentType":5126,
			"count":1390,
			"type":"VEC2"
		},
		{
			"bufferView":3,
			"componentType":5126,
			"count":1390,
			"type":"VEC2"
		},
		{
			"bufferView":4,
			"componentType":5126,
			"count":1390,
			"type":"VEC2"
		},
		{
			"bufferView":5,
			"componentType":5126,
			"count":1390,
			"type":"VEC2"
		},
		{
			"bufferView":6,
			"componentType":5126,
			"count":1390,
			"type":"VEC2"
		},
		{
			"bufferView":7,
			"componentType":5126,
			"count":1390,
			"type":"VEC2"
		},
		{
			"bufferView":8,
			"componentType":5126,
			"count":1390,
			"type":"VEC2"
		},
		{
			"bufferView":9,
			"componentType":5126,
			"count":1390,
			"type":"VEC2"
		},
		{
			"bufferView":10,
			"componentType":5123,
			"count":3360,
			"type":"SCALAR"
		}
	],
	"bufferViews":[
		{
			"buffer":0,
			"byteLength":16680,
			"byteOffset":0,
			"target":34962
		},
		{
			"buffer":0,
			"byteLength":16680,
			"byteOffset":16680,
			"target":34962
		},
		{
			"buffer":0,
			"byteLength":11120,
			"byteOffset":33360,
			"target":34962
		},
		{
			"buffer":0,
			"byteLength":11120,
			"byteOffset":44480,
			"target":34962
		},
		{
			"buffer":0,
			"byteLength":11120,
			"byteOffset":55600,
			"target":34962
		},
		{
			"buffer":0,
			"byteLength":11120,
			"byteOffset":66720,
			"target":34962
		},
		{
			"buffer":0,
			"byteLength":11120,
			"byteOffset":77840,
			"target":34962
		},
		{
			"buffer":0,
			"byteLength":11120,
			"byteOffset":88960,
			"target":34962
		},
		{
			"buffer":0,
			"byteLength":11120,
			"byteOffset":100080,
			"target":34962
		},
		{
			"buffer":0,
			"byteLength":11120,
			"byteOffset":111200,
			"target":34962
		},
		{
			"buffer":0,
			"byteLength":6720,
			"byteOffset":122320,
			"target":34963
		}
	],
	"samplers":[
		{
			"magFilter":9729,
			"minFilter":9987
		}
	],
	"buffers":[
		{
			"byteLength":129040,
			"uri":"YellowFlower.bin"
		}
	]
}
