{
	"asset":{
		"generator":"Khronos glTF Blender I/O v3.6.27",
		"version":"2.0"
	},
	"scene":0,
	"scenes":[
		{
			"name":"Scene",
			"nodes":[
				0
			]
		}
	],
	"nodes":[
		{
			"mesh":0,
			"name":"default15_Material_0",
			"scale":[
				0.009999999776482582,
				0.010000001639127731,
				0.010000001639127731
			]
		}
	],
	"materials":[
		{
			"doubleSided":true,
			"name":"Material.002",
			"pbrMetallicRoughness":{
				"baseColorTexture":{
					"index":0
				},
				"metallicFactor":0
			}
		}
	],
	"meshes":[
		{
			"name":"default15_Material_0",
			"primitives":[
				{
					"attributes":{
						"POSITION":0,
						"NORMAL":1,
						"TEXCOORD_0":2,
						"TEXCOORD_1":3,
						"TEXCOORD_2":4,
						"TEXCOORD_3":5,
						"TEXCOORD_4":6,
						"TEXCOORD_5":7,
						"TEXCOORD_6":8,
						"TEXCOORD_7":9
					},
					"indices":10,
					"material":0
				}
			]
		}
	],
	"textures":[
		{
			"sampler":0,
			"source":0
		}
	],
	"images":[
		{
			"mimeType":"image/jpeg",
			"name":"Material_baseColor",
			"uri":"Material_baseColor.jpg"
		}
	],
	"accessors":[
		{
			"bufferView":0,
			"componentType":5126,
			"count":1082,
			"max":[
				0.7912821769714355,
				1.9664289951324463,
				0.9410012364387512
			],
			"min":[
				-0.9897139072418213,
				-0.040300000458955765,
				-0.9114287495613098
			],
			"type":"VEC3"
		},
		{
			"bufferView":1,
			"componentType":5126,
			"count":1082,
			"type":"VEC3"
		},
		{
			"bufferView":2,
			"componentType":5126,
			"count":1082,
			"type":"VEC2"
		},
		{
			"bufferView":3,
			"componentType":5126,
			"count":1082,
			"type":"VEC2"
		},
		{
			"bufferView":4,
			"componentType":5126,
			"count":1082,
			"type":"VEC2"
		},
		{
			"bufferView":5,
			"componentType":5126,
			"count":1082,
			"type":"VEC2"
		},
		{
			"bufferView":6,
			"componentType":5126,
			"count":1082,
			"type":"VEC2"
		},
		{
			"bufferView":7,
			"componentType":5126,
			"count":1082,
			"type":"VEC2"
		},
		{
			"bufferView":8,
			"componentType":5126,
			"count":1082,
			"type":"VEC2"
		},
		{
			"bufferView":9,
			"componentType":5126,
			"count":1082,
			"type":"VEC2"
		},
		{
			"bufferView":10,
			"componentType":5123,
			"count":3780,
			"type":"SCALAR"
		}
	],
	"bufferViews":[
		{
			"buffer":0,
			"byteLength":12984,
			"byteOffset":0,
			"target":34962
		},
		{
			"buffer":0,
			"byteLength":12984,
			"byteOffset":12984,
			"target":34962
		},
		{
			"buffer":0,
			"byteLength":8656,
			"byteOffset":25968,
			"target":34962
		},
		{
			"buffer":0,
			"byteLength":8656,
			"byteOffset":34624,
			"target":34962
		},
		{
			"buffer":0,
			"byteLength":8656,
			"byteOffset":43280,
			"target":34962
		},
		{
			"buffer":0,
			"byteLength":8656,
			"byteOffset":51936,
			"target":34962
		},
		{
			"buffer":0,
			"byteLength":8656,
			"byteOffset":60592,
			"target":34962
		},
		{
			"buffer":0,
			"byteLength":8656,
			"byteOffset":69248,
			"target":34962
		},
		{
			"buffer":0,
			"byteLength":8656,
			"byteOffset":77904,
			"target":34962
		},
		{
			"buffer":0,
			"byteLength":8656,
			"byteOffset":86560,
			"target":34962
		},
		{
			"buffer":0,
			"byteLength":7560,
			"byteOffset":95216,
			"target":34963
		}
	],
	"samplers":[
		{
			"magFilter":9729,
			"minFilter":9987
		}
	],
	"buffers":[
		{
			"byteLength":102776,
			"uri":"YellowCosmos.bin"
		}
	]
}
