{
	"asset":{
		"generator":"Khronos glTF Blender I/O v4.5.49",
		"version":"2.0"
	},
	"extensionsUsed":[
		"KHR_materials_specular",
		"KHR_materials_ior"
	],
	"scene":0,
	"scenes":[
		{
			"name":"Scene",
			"nodes":[
				0
			]
		}
	],
	"nodes":[
		{
			"mesh":0,
			"name":"TRS3"
		}
	],
	"materials":[
		{
			"alphaMode":"MASK",
			"doubleSided":true,
			"emissiveFactor":[
				0.30000001192092896,
				0.30000001192092896,
				0.30000001192092896
			],
			"emissiveTexture":{
				"index":0
			},
			"extensions":{
				"KHR_materials_specular":{
					"specularFactor":0.09090912342071533
				},
				"KHR_materials_ior":{
					"ior":1.4500000476837158
				}
			},
			"name":"DioR",
			"pbrMetallicRoughness":{
				"baseColorTexture":{
					"index":1
				},
				"metallicFactor":0,
				"roughnessFactor":0.6545454859733582
			}
		}
	],
	"meshes":[
		{
			"name":"Plane.135",
			"primitives":[
				{
					"attributes":{
						"POSITION":0,
						"NORMAL":1,
						"TEXCOORD_0":2
					},
					"indices":3,
					"material":0
				}
			]
		}
	],
	"textures":[
		{
			"sampler":0,
			"source":0
		},
		{
			"sampler":0,
			"source":0
		}
	],
	"images":[
		{
			"mimeType":"image/png",
			"name":"DioR3",
			"uri":"DioR3.png"
		}
	],
	"accessors":[
		{
			"bufferView":0,
			"componentType":5126,
			"count":7780,
			"max":[
				3.1024904251098633,
				7.414209365844727,
				3.1877615451812744
			],
			"min":[
				-3.1447577476501465,
				-0.013140100985765457,
				-2.7930498123168945
			],
			"type":"VEC3"
		},
		{
			"bufferView":1,
			"componentType":5126,
			"count":7780,
			"type":"VEC3"
		},
		{
			"bufferView":2,
			"componentType":5126,
			"count":7780,
			"type":"VEC2"
		},
		{
			"bufferView":3,
			"componentType":5123,
			"count":30342,
			"type":"SCALAR"
		}
	],
	"bufferViews":[
		{
			"buffer":0,
			"byteLength":93360,
			"byteOffset":0,
			"target":34962
		},
		{
			"buffer":0,
			"byteLength":93360,
			"byteOffset":93360,
			"target":34962
		},
		{
			"buffer":0,
			"byteLength":62240,
			"byteOffset":186720,
			"target":34962
		},
		{
			"buffer":0,
			"byteLength":60684,
			"byteOffset":248960,
			"target":34963
		}
	],
	"samplers":[
		{
			"magFilter":9729,
			"minFilter":9987
		}
	],
	"buffers":[
		{
			"byteLength":309644,
			"uri":"FantasyTree.bin"
		}
	]
}
