{
	"asset":{
		"generator":"Khronos glTF Blender I/O v3.6.27",
		"version":"2.0"
	},
	"scene":0,
	"scenes":[
		{
			"name":"Scene",
			"nodes":[
				9
			]
		}
	],
	"nodes":[
		{
			"mesh":0,
			"name":"defaultMaterial"
		},
		{
			"children":[
				0
			],
			"name":"Sketchup"
		},
		{
			"mesh":1,
			"name":"defaultMaterial.001"
		},
		{
			"children":[
				2
			],
			"name":"Sketchup.001"
		},
		{
			"mesh":2,
			"name":"defaultMaterial.002"
		},
		{
			"children":[
				4
			],
			"name":"Sketchup.002"
		},
		{
			"mesh":3,
			"name":"defaultMaterial.003"
		},
		{
			"children":[
				6
			],
			"name":"Sketchup.003"
		},
		{
			"children":[
				1,
				3,
				5,
				7
			],
			"name":"Collada visual scene group"
		},
		{
			"children":[
				8
			],
			"name":"Sketchfab_model"
		}
	],
	"materials":[
		{
			"doubleSided":true,
			"name":"material_3.001",
			"normalTexture":{
				"index":0
			},
			"pbrMetallicRoughness":{
				"baseColorTexture":{
					"index":1
				},
				"metallicRoughnessTexture":{
					"index":2
				}
			}
		},
		{
			"doubleSided":true,
			"name":"material.001",
			"normalTexture":{
				"index":3
			},
			"pbrMetallicRoughness":{
				"baseColorTexture":{
					"index":4
				},
				"metallicRoughnessTexture":{
					"index":5
				}
			}
		},
		{
			"doubleSided":true,
			"name":"Main.001",
			"normalTexture":{
				"index":6
			},
			"pbrMetallicRoughness":{
				"baseColorTexture":{
					"index":7
				},
				"metallicRoughnessTexture":{
					"index":8
				}
			}
		},
		{
			"doubleSided":true,
			"name":"Towers.001",
			"normalTexture":{
				"index":9
			},
			"pbrMetallicRoughness":{
				"baseColorTexture":{
					"index":10
				},
				"metallicRoughnessTexture":{
					"index":11
				}
			}
		}
	],
	"meshes":[
		{
			"name":"defaultMaterial.004",
			"primitives":[
				{
					"attributes":{
						"POSITION":0,
						"NORMAL":1,
						"TEXCOORD_0":2
					},
					"indices":3,
					"material":0
				}
			]
		},
		{
			"name":"defaultMaterial.005",
			"primitives":[
				{
					"attributes":{
						"POSITION":4,
						"NORMAL":5,
						"TEXCOORD_0":6
					},
					"indices":7,
					"material":1
				}
			]
		},
		{
			"name":"defaultMaterial.006",
			"primitives":[
				{
					"attributes":{
						"POSITION":8,
						"NORMAL":9,
						"TEXCOORD_0":10
					},
					"indices":11,
					"material":2
				}
			]
		},
		{
			"name":"defaultMaterial.007",
			"primitives":[
				{
					"attributes":{
						"POSITION":12,
						"NORMAL":13,
						"TEXCOORD_0":14
					},
					"indices":15,
					"material":3
				}
			]
		}
	],
	"textures":[
		{
			"sampler":0,
			"source":0
		},
		{
			"sampler":0,
			"source":1
		},
		{
			"sampler":0,
			"source":2
		},
		{
			"sampler":0,
			"source":3
		},
		{
			"sampler":0,
			"source":4
		},
		{
			"sampler":0,
			"source":2
		},
		{
			"sampler":0,
			"source":5
		},
		{
			"sampler":0,
			"source":6
		},
		{
			"sampler":0,
			"source":7
		},
		{
			"sampler":0,
			"source":8
		},
		{
			"sampler":0,
			"source":9
		},
		{
			"sampler":0,
			"source":10
		}
	],
	"images":[
		{
			"mimeType":"image/jpeg",
			"name":"material_3_normal",
			"uri":"material_3_normal.jpg"
		},
		{
			"mimeType":"image/jpeg",
			"name":"material_3_baseColor",
			"uri":"material_3_baseColor.jpg"
		},
		{
			"mimeType":"image/png",
			"name":"material_metallicRoughness",
			"uri":"material_metallicRoughness.png"
		},
		{
			"mimeType":"image/jpeg",
			"name":"material_normal",
			"uri":"material_normal.jpg"
		},
		{
			"mimeType":"image/jpeg",
			"name":"material_baseColor",
			"uri":"material_baseColor.jpg"
		},
		{
			"mimeType":"image/jpeg",
			"name":"Main_normal",
			"uri":"Main_normal.jpg"
		},
		{
			"mimeType":"image/jpeg",
			"name":"Main_baseColor",
			"uri":"Main_baseColor.jpg"
		},
		{
			"mimeType":"image/png",
			"name":"Main_metallicRoughness",
			"uri":"Main_metallicRoughness.png"
		},
		{
			"mimeType":"image/jpeg",
			"name":"Towers_normal",
			"uri":"Towers_normal.jpg"
		},
		{
			"mimeType":"image/jpeg",
			"name":"Towers_baseColor",
			"uri":"Towers_baseColor.jpg"
		},
		{
			"mimeType":"image/png",
			"name":"Towers_metallicRoughness",
			"uri":"Towers_metallicRoughness.png"
		}
	],
	"accessors":[
		{
			"bufferView":0,
			"componentType":5126,
			"count":630,
			"max":[
				35.704750061035156,
				36.305938720703125,
				98.44486236572266
			],
			"min":[
				-36.73539352416992,
				-1.1995315551757812,
				-235.84059143066406
			],
			"type":"VEC3"
		},
		{
			"bufferView":1,
			"componentType":5126,
			"count":630,
			"type":"VEC3"
		},
		{
			"bufferView":2,
			"componentType":5126,
			"count":630,
			"type":"VEC2"
		},
		{
			"bufferView":3,
			"componentType":5123,
			"count":2070,
			"type":"SCALAR"
		},
		{
			"bufferView":4,
			"componentType":5126,
			"count":1484,
			"max":[
				55.45365524291992,
				82.35809326171875,
				98.44486236572266
			],
			"min":[
				-57.48933792114258,
				-1.1995315551757812,
				-235.84059143066406
			],
			"type":"VEC3"
		},
		{
			"bufferView":5,
			"componentType":5126,
			"count":1484,
			"type":"VEC3"
		},
		{
			"bufferView":6,
			"componentType":5126,
			"count":1484,
			"type":"VEC2"
		},
		{
			"bufferView":7,
			"componentType":5123,
			"count":3669,
			"type":"SCALAR"
		},
		{
			"bufferView":8,
			"componentType":5126,
			"count":7371,
			"max":[
				69.99205017089844,
				108.16893005371094,
				32.24779510498047
			],
			"min":[
				-71.04227447509766,
				-1.199371337890625,
				-17.369184494018555
			],
			"type":"VEC3"
		},
		{
			"bufferView":9,
			"componentType":5126,
			"count":7371,
			"type":"VEC3"
		},
		{
			"bufferView":10,
			"componentType":5126,
			"count":7371,
			"type":"VEC2"
		},
		{
			"bufferView":11,
			"componentType":5123,
			"count":16311,
			"type":"SCALAR"
		},
		{
			"bufferView":12,
			"componentType":5126,
			"count":2051,
			"max":[
				76.95069885253906,
				100.145751953125,
				39.20643997192383
			],
			"min":[
				-78.07145690917969,
				-1.199371337890625,
				-169.52740478515625
			],
			"type":"VEC3"
		},
		{
			"bufferView":13,
			"componentType":5126,
			"count":2051,
			"type":"VEC3"
		},
		{
			"bufferView":14,
			"componentType":5126,
			"count":2051,
			"type":"VEC2"
		},
		{
			"bufferView":15,
			"componentType":5123,
			"count":4788,
			"type":"SCALAR"
		}
	],
	"bufferViews":[
		{
			"buffer":0,
			"byteLength":7560,
			"byteOffset":0,
			"target":34962
		},
		{
			"buffer":0,
			"byteLength":7560,
			"byteOffset":7560,
			"target":34962
		},
		{
			"buffer":0,
			"byteLength":5040,
			"byteOffset":15120,
			"target":34962
		},
		{
			"buffer":0,
			"byteLength":4140,
			"byteOffset":20160,
			"target":34963
		},
		{
			"buffer":0,
			"byteLength":17808,
			"byteOffset":24300,
			"target":34962
		},
		{
			"buffer":0,
			"byteLength":17808,
			"byteOffset":42108,
			"target":34962
		},
		{
			"buffer":0,
			"byteLength":11872,
			"byteOffset":59916,
			"target":34962
		},
		{
			"buffer":0,
			"byteLength":7338,
			"byteOffset":71788,
			"target":34963
		},
		{
			"buffer":0,
			"byteLength":88452,
			"byteOffset":79128,
			"target":34962
		},
		{
			"buffer":0,
			"byteLength":88452,
			"byteOffset":167580,
			"target":34962
		},
		{
			"buffer":0,
			"byteLength":58968,
			"byteOffset":256032,
			"target":34962
		},
		{
			"buffer":0,
			"byteLength":32622,
			"byteOffset":315000,
			"target":34963
		},
		{
			"buffer":0,
			"byteLength":24612,
			"byteOffset":347624,
			"target":34962
		},
		{
			"buffer":0,
			"byteLength":24612,
			"byteOffset":372236,
			"target":34962
		},
		{
			"buffer":0,
			"byteLength":16408,
			"byteOffset":396848,
			"target":34962
		},
		{
			"buffer":0,
			"byteLength":9576,
			"byteOffset":413256,
			"target":34963
		}
	],
	"samplers":[
		{
			"magFilter":9729,
			"minFilter":9987
		}
	],
	"buffers":[
		{
			"byteLength":422832,
			"uri":"MedievalBridge.bin"
		}
	]
}
