{
	"asset":{
		"generator":"Khronos glTF Blender I/O v3.6.27",
		"version":"2.0"
	},
	"extensionsUsed":[
		"KHR_materials_specular"
	],
	"scene":0,
	"scenes":[
		{
			"name":"Scene",
			"nodes":[
				3
			]
		}
	],
	"nodes":[
		{
			"mesh":0,
			"name":"defaultMaterial"
		},
		{
			"children":[
				0
			],
			"name":"small"
		},
		{
			"children":[
				1
			],
			"name":"Collada visual scene group"
		},
		{
			"children":[
				2
			],
			"name":"Sketchfab_model"
		}
	],
	"materials":[
		{
			"doubleSided":true,
			"extensions":{
				"KHR_materials_specular":{
					"specularColorTexture":{
						"index":0
					},
					"specularColorFactor":[
						2.9999997615814205,
						1,
						1
					]
				}
			},
			"name":"small",
			"normalTexture":{
				"index":1
			},
			"occlusionTexture":{
				"index":2
			},
			"pbrMetallicRoughness":{
				"baseColorTexture":{
					"index":3
				},
				"metallicRoughnessTexture":{
					"index":2
				},
				"roughnessFactor":0.7770000100135803
			}
		}
	],
	"meshes":[
		{
			"name":"defaultMaterial",
			"primitives":[
				{
					"attributes":{
						"POSITION":0,
						"NORMAL":1,
						"TEXCOORD_0":2,
						"TEXCOORD_1":3
					},
					"indices":4,
					"material":0
				}
			]
		}
	],
	"textures":[
		{
			"sampler":0,
			"source":0
		},
		{
			"sampler":0,
			"source":1
		},
		{
			"sampler":0,
			"source":2
		},
		{
			"sampler":0,
			"source":3
		}
	],
	"images":[
		{
			"mimeType":"image/png",
			"name":"Image",
			"uri":"Image.png"
		},
		{
			"mimeType":"image/png",
			"name":"small_normal",
			"uri":"small_normal.png"
		},
		{
			"mimeType":"image/png",
			"name":"small_metallicRoughness",
			"uri":"small_metallicRoughness.png"
		},
		{
			"mimeType":"image/jpeg",
			"name":"small_baseColor",
			"uri":"small_baseColor.jpg"
		}
	],
	"accessors":[
		{
			"bufferView":0,
			"componentType":5126,
			"count":37595,
			"max":[
				25.26764678955078,
				124.37432861328125,
				23.671279907226562
			],
			"min":[
				-22.96727180480957,
				-1.9546499252319336,
				-26.336322784423828
			],
			"type":"VEC3"
		},
		{
			"bufferView":1,
			"componentType":5126,
			"count":37595,
			"type":"VEC3"
		},
		{
			"bufferView":2,
			"componentType":5126,
			"count":37595,
			"type":"VEC2"
		},
		{
			"bufferView":3,
			"componentType":5126,
			"count":37595,
			"type":"VEC2"
		},
		{
			"bufferView":4,
			"componentType":5123,
			"count":51099,
			"type":"SCALAR"
		}
	],
	"bufferViews":[
		{
			"buffer":0,
			"byteLength":451140,
			"byteOffset":0,
			"target":34962
		},
		{
			"buffer":0,
			"byteLength":451140,
			"byteOffset":451140,
			"target":34962
		},
		{
			"buffer":0,
			"byteLength":300760,
			"byteOffset":902280,
			"target":34962
		},
		{
			"buffer":0,
			"byteLength":300760,
			"byteOffset":1203040,
			"target":34962
		},
		{
			"buffer":0,
			"byteLength":102198,
			"byteOffset":1503800,
			"target":34963
		}
	],
	"samplers":[
		{
			"magFilter":9729,
			"minFilter":9987
		}
	],
	"buffers":[
		{
			"byteLength":1606000,
			"uri":"RuinTower.bin"
		}
	]
}
