{
	"asset":{
		"generator":"Khronos glTF Blender I/O v3.6.27",
		"version":"2.0"
	},
	"extensionsUsed":[
		"KHR_materials_specular"
	],
	"scene":0,
	"scenes":[
		{
			"name":"Scene",
			"nodes":[
				6
			]
		}
	],
	"nodes":[
		{
			"mesh":0,
			"name":"Base_lambert2_0"
		},
		{
			"children":[
				0
			],
			"name":"Base"
		},
		{
			"mesh":1,
			"name":"TopBit_lambert2_0"
		},
		{
			"children":[
				2
			],
			"name":"TopBit"
		},
		{
			"children":[
				1,
				3
			],
			"name":"RootNode"
		},
		{
			"children":[
				4
			],
			"name":"eb42b9845e714691a6c89415427a665e.fbx",
			"rotation":[
				0.70710688829422,
				0,
				0,
				0.7071066498756409
			]
		},
		{
			"children":[
				5
			],
			"name":"Sketchfab_model",
			"rotation":[
				-0.70710688829422,
				0,
				0,
				0.7071066498756409
			]
		}
	],
	"materials":[
		{
			"doubleSided":true,
			"emissiveFactor":[
				0.7161926627159119,
				0.7161926627159119,
				0.7161926627159119
			],
			"emissiveTexture":{
				"index":0
			},
			"extensions":{
				"KHR_materials_specular":{
					"specularColorTexture":{
						"index":1
					}
				}
			},
			"name":"lambert2",
			"normalTexture":{
				"index":2
			},
			"pbrMetallicRoughness":{
				"baseColorTexture":{
					"index":3
				},
				"metallicFactor":0,
				"metallicRoughnessTexture":{
					"index":4
				}
			}
		}
	],
	"meshes":[
		{
			"name":"Base_lambert2_0",
			"primitives":[
				{
					"attributes":{
						"POSITION":0,
						"NORMAL":1,
						"TEXCOORD_0":2
					},
					"indices":3,
					"material":0
				}
			]
		},
		{
			"name":"TopBit_lambert2_0",
			"primitives":[
				{
					"attributes":{
						"POSITION":4,
						"NORMAL":5,
						"TEXCOORD_0":6
					},
					"indices":7,
					"material":0
				}
			]
		}
	],
	"textures":[
		{
			"sampler":0,
			"source":0
		},
		{
			"sampler":0,
			"source":1
		},
		{
			"sampler":0,
			"source":2
		},
		{
			"sampler":0,
			"source":3
		},
		{
			"sampler":0,
			"source":4
		}
	],
	"images":[
		{
			"mimeType":"image/png",
			"name":"lambert2_emissive",
			"uri":"lambert2_emissive.png"
		},
		{
			"mimeType":"image/png",
			"name":"Image",
			"uri":"Image.png"
		},
		{
			"mimeType":"image/png",
			"name":"lambert2_normal",
			"uri":"lambert2_normal.png"
		},
		{
			"mimeType":"image/png",
			"name":"lambert2_baseColor",
			"uri":"lambert2_baseColor.png"
		},
		{
			"mimeType":"image/png",
			"name":"lambert2_metallicRoughness",
			"uri":"lambert2_metallicRoughness.png"
		}
	],
	"accessors":[
		{
			"bufferView":0,
			"componentType":5126,
			"count":1013,
			"max":[
				70.65813446044922,
				1.6759918928146362,
				409.96014404296875
			],
			"min":[
				67.96381378173828,
				0.39188873767852783,
				407.2660217285156
			],
			"type":"VEC3"
		},
		{
			"bufferView":1,
			"componentType":5126,
			"count":1013,
			"type":"VEC3"
		},
		{
			"bufferView":2,
			"componentType":5126,
			"count":1013,
			"type":"VEC2"
		},
		{
			"bufferView":3,
			"componentType":5123,
			"count":4032,
			"type":"SCALAR"
		},
		{
			"bufferView":4,
			"componentType":5126,
			"count":1457,
			"max":[
				13.850668907165527,
				54.129539489746094,
				14.34654712677002
			],
			"min":[
				-13.968790054321289,
				-0.3679027557373047,
				-13.708793640136719
			],
			"type":"VEC3"
		},
		{
			"bufferView":5,
			"componentType":5126,
			"count":1457,
			"type":"VEC3"
		},
		{
			"bufferView":6,
			"componentType":5126,
			"count":1457,
			"type":"VEC2"
		},
		{
			"bufferView":7,
			"componentType":5123,
			"count":7020,
			"type":"SCALAR"
		}
	],
	"bufferViews":[
		{
			"buffer":0,
			"byteLength":12156,
			"byteOffset":0,
			"target":34962
		},
		{
			"buffer":0,
			"byteLength":12156,
			"byteOffset":12156,
			"target":34962
		},
		{
			"buffer":0,
			"byteLength":8104,
			"byteOffset":24312,
			"target":34962
		},
		{
			"buffer":0,
			"byteLength":8064,
			"byteOffset":32416,
			"target":34963
		},
		{
			"buffer":0,
			"byteLength":17484,
			"byteOffset":40480,
			"target":34962
		},
		{
			"buffer":0,
			"byteLength":17484,
			"byteOffset":57964,
			"target":34962
		},
		{
			"buffer":0,
			"byteLength":11656,
			"byteOffset":75448,
			"target":34962
		},
		{
			"buffer":0,
			"byteLength":14040,
			"byteOffset":87104,
			"target":34963
		}
	],
	"samplers":[
		{
			"magFilter":9729,
			"minFilter":9987
		}
	],
	"buffers":[
		{
			"byteLength":101144,
			"uri":"RuinStoneA.bin"
		}
	]
}
