{
	"asset":{
		"generator":"Khronos glTF Blender I/O v3.6.27",
		"version":"2.0"
	},
	"scene":0,
	"scenes":[
		{
			"name":"Scene",
			"nodes":[
				7
			]
		}
	],
	"nodes":[
		{
			"mesh":0,
			"name":"polySurface1_blinn1_0"
		},
		{
			"children":[
				0
			],
			"name":"polySurface1"
		},
		{
			"mesh":1,
			"name":"polySurface2_blinn1_0"
		},
		{
			"children":[
				2
			],
			"name":"polySurface2"
		},
		{
			"children":[
				1,
				3
			],
			"name":"pPipe1"
		},
		{
			"children":[
				4
			],
			"name":"RootNode"
		},
		{
			"children":[
				5
			],
			"name":"029223fbdc984f33a8a439f1bcbfbb9b.fbx"
		},
		{
			"children":[
				6
			],
			"name":"Sketchfab_model"
		}
	],
	"materials":[
		{
			"doubleSided":true,
			"name":"blinn1.001",
			"pbrMetallicRoughness":{
				"baseColorTexture":{
					"index":0
				},
				"metallicFactor":0.6541539430618286,
				"roughnessFactor":0.6480563879013062
			}
		}
	],
	"meshes":[
		{
			"name":"polySurface1_blinn1_0.001",
			"primitives":[
				{
					"attributes":{
						"POSITION":0,
						"NORMAL":1,
						"TEXCOORD_0":2,
						"TEXCOORD_1":3,
						"TEXCOORD_2":4
					},
					"indices":5,
					"material":0
				}
			]
		},
		{
			"name":"polySurface2_blinn1_0.001",
			"primitives":[
				{
					"attributes":{
						"POSITION":6,
						"NORMAL":7,
						"TEXCOORD_0":8,
						"TEXCOORD_1":9
					},
					"indices":10,
					"material":0
				}
			]
		}
	],
	"textures":[
		{
			"sampler":0,
			"source":0
		}
	],
	"images":[
		{
			"mimeType":"image/png",
			"name":"blinn1_baseColor",
			"uri":"blinn1_baseColor.png"
		}
	],
	"accessors":[
		{
			"bufferView":0,
			"componentType":5126,
			"count":4280,
			"max":[
				24.86644744873047,
				55.66294860839844,
				17.126237869262695
			],
			"min":[
				-17.694873809814453,
				-0.8250894546508789,
				-26.259000778198242
			],
			"type":"VEC3"
		},
		{
			"bufferView":1,
			"componentType":5126,
			"count":4280,
			"type":"VEC3"
		},
		{
			"bufferView":2,
			"componentType":5126,
			"count":4280,
			"type":"VEC2"
		},
		{
			"bufferView":3,
			"componentType":5126,
			"count":4280,
			"type":"VEC2"
		},
		{
			"bufferView":4,
			"componentType":5126,
			"count":4280,
			"type":"VEC2"
		},
		{
			"bufferView":5,
			"componentType":5123,
			"count":13032,
			"type":"SCALAR"
		},
		{
			"bufferView":6,
			"componentType":5126,
			"count":14466,
			"max":[
				221.57608032226562,
				29.68535614013672,
				59.497459411621094
			],
			"min":[
				27.022010803222656,
				-5.840081214904785,
				14.390695571899414
			],
			"type":"VEC3"
		},
		{
			"bufferView":7,
			"componentType":5126,
			"count":14466,
			"type":"VEC3"
		},
		{
			"bufferView":8,
			"componentType":5126,
			"count":14466,
			"type":"VEC2"
		},
		{
			"bufferView":9,
			"componentType":5126,
			"count":14466,
			"type":"VEC2"
		},
		{
			"bufferView":10,
			"componentType":5123,
			"count":56478,
			"type":"SCALAR"
		}
	],
	"bufferViews":[
		{
			"buffer":0,
			"byteLength":51360,
			"byteOffset":0,
			"target":34962
		},
		{
			"buffer":0,
			"byteLength":51360,
			"byteOffset":51360,
			"target":34962
		},
		{
			"buffer":0,
			"byteLength":34240,
			"byteOffset":102720,
			"target":34962
		},
		{
			"buffer":0,
			"byteLength":34240,
			"byteOffset":136960,
			"target":34962
		},
		{
			"buffer":0,
			"byteLength":34240,
			"byteOffset":171200,
			"target":34962
		},
		{
			"buffer":0,
			"byteLength":26064,
			"byteOffset":205440,
			"target":34963
		},
		{
			"buffer":0,
			"byteLength":173592,
			"byteOffset":231504,
			"target":34962
		},
		{
			"buffer":0,
			"byteLength":173592,
			"byteOffset":405096,
			"target":34962
		},
		{
			"buffer":0,
			"byteLength":115728,
			"byteOffset":578688,
			"target":34962
		},
		{
			"buffer":0,
			"byteLength":115728,
			"byteOffset":694416,
			"target":34962
		},
		{
			"buffer":0,
			"byteLength":112956,
			"byteOffset":810144,
			"target":34963
		}
	],
	"samplers":[
		{
			"magFilter":9729,
			"minFilter":9987
		}
	],
	"buffers":[
		{
			"byteLength":923100,
			"uri":"RuinBreakTowerA.bin"
		}
	]
}
