{
	"asset":{
		"generator":"Khronos glTF Blender I/O v3.6.27",
		"version":"2.0"
	},
	"scene":0,
	"scenes":[
		{
			"name":"Scene",
			"nodes":[
				0
			]
		}
	],
	"nodes":[
		{
			"mesh":0,
			"name":"pCylinder27_Bridge_root_0"
		}
	],
	"materials":[
		{
			"alphaMode":"BLEND",
			"doubleSided":true,
			"emissiveFactor":[
				1,
				1,
				1
			],
			"emissiveTexture":{
				"index":0
			},
			"name":"Bridge_root",
			"normalTexture":{
				"index":1
			},
			"occlusionTexture":{
				"index":2
			},
			"pbrMetallicRoughness":{
				"baseColorTexture":{
					"index":3
				},
				"metallicRoughnessTexture":{
					"index":2
				}
			}
		}
	],
	"meshes":[
		{
			"name":"pCylinder27_Bridge_root_0",
			"primitives":[
				{
					"attributes":{
						"POSITION":0,
						"NORMAL":1,
						"TEXCOORD_0":2
					},
					"indices":3,
					"material":0
				}
			]
		}
	],
	"textures":[
		{
			"sampler":0,
			"source":0
		},
		{
			"sampler":0,
			"source":1
		},
		{
			"sampler":0,
			"source":2
		},
		{
			"sampler":0,
			"source":3
		}
	],
	"images":[
		{
			"mimeType":"image/png",
			"name":"Bridge_root_emissive",
			"uri":"Bridge_root_emissive.png"
		},
		{
			"mimeType":"image/png",
			"name":"Bridge_root_normal",
			"uri":"Bridge_root_normal.png"
		},
		{
			"mimeType":"image/png",
			"name":"Bridge_root_metallicRoughness",
			"uri":"Bridge_root_metallicRoughness.png"
		},
		{
			"mimeType":"image/png",
			"name":"Bridge_root_baseColor",
			"uri":"Bridge_root_baseColor.png"
		}
	],
	"accessors":[
		{
			"bufferView":0,
			"componentType":5126,
			"count":1532,
			"max":[
				249.66024780273438,
				174.01278686523438,
				31.1068115234375
			],
			"min":[
				-236.22300720214844,
				-27.842559814453125,
				-38.9528694152832
			],
			"type":"VEC3"
		},
		{
			"bufferView":1,
			"componentType":5126,
			"count":1532,
			"type":"VEC3"
		},
		{
			"bufferView":2,
			"componentType":5126,
			"count":1532,
			"type":"VEC2"
		},
		{
			"bufferView":3,
			"componentType":5123,
			"count":6816,
			"type":"SCALAR"
		}
	],
	"bufferViews":[
		{
			"buffer":0,
			"byteLength":18384,
			"byteOffset":0,
			"target":34962
		},
		{
			"buffer":0,
			"byteLength":18384,
			"byteOffset":18384,
			"target":34962
		},
		{
			"buffer":0,
			"byteLength":12256,
			"byteOffset":36768,
			"target":34962
		},
		{
			"buffer":0,
			"byteLength":13632,
			"byteOffset":49024,
			"target":34963
		}
	],
	"samplers":[
		{
			"magFilter":9729,
			"minFilter":9987
		}
	],
	"buffers":[
		{
			"byteLength":62656,
			"uri":"GiantTreeBridge.bin"
		}
	]
}
