{
	"asset":{
		"generator":"Khronos glTF Blender I/O v3.6.27",
		"version":"2.0"
	},
	"scene":0,
	"scenes":[
		{
			"name":"Scene",
			"nodes":[
				0
			]
		}
	],
	"nodes":[
		{
			"mesh":0,
			"name":"rock-cluster-low-03_rock-cluster-dark_0"
		}
	],
	"materials":[
		{
			"doubleSided":true,
			"name":"rock-cluster-dark",
			"normalTexture":{
				"index":0
			},
			"occlusionTexture":{
				"index":1
			},
			"pbrMetallicRoughness":{
				"baseColorTexture":{
					"index":2
				},
				"metallicFactor":0,
				"metallicRoughnessTexture":{
					"index":1
				}
			}
		}
	],
	"meshes":[
		{
			"name":"rock-cluster-low-03_rock-cluster-dark_0",
			"primitives":[
				{
					"attributes":{
						"POSITION":0,
						"NORMAL":1,
						"TEXCOORD_0":2,
						"TEXCOORD_1":3,
						"TEXCOORD_2":4
					},
					"indices":5,
					"material":0
				}
			]
		}
	],
	"textures":[
		{
			"sampler":0,
			"source":0
		},
		{
			"sampler":0,
			"source":1
		},
		{
			"sampler":0,
			"source":2
		}
	],
	"images":[
		{
			"mimeType":"image/png",
			"name":"rock-cluster-dark_normal",
			"uri":"rock-cluster-dark_normal.png"
		},
		{
			"mimeType":"image/png",
			"name":"rock-cluster-dark_metallicRoughness",
			"uri":"rock-cluster-dark_metallicRoughness.png"
		},
		{
			"mimeType":"image/png",
			"name":"rock-cluster-dark_baseColor",
			"uri":"rock-cluster-dark_baseColor.png"
		}
	],
	"accessors":[
		{
			"bufferView":0,
			"componentType":5126,
			"count":312,
			"max":[
				17.8477725982666,
				14.657553672790527,
				31.161710739135742
			],
			"min":[
				-17.134613037109375,
				-18.984777450561523,
				-31.033044815063477
			],
			"type":"VEC3"
		},
		{
			"bufferView":1,
			"componentType":5126,
			"count":312,
			"type":"VEC3"
		},
		{
			"bufferView":2,
			"componentType":5126,
			"count":312,
			"type":"VEC2"
		},
		{
			"bufferView":3,
			"componentType":5126,
			"count":312,
			"type":"VEC2"
		},
		{
			"bufferView":4,
			"componentType":5126,
			"count":312,
			"type":"VEC2"
		},
		{
			"bufferView":5,
			"componentType":5123,
			"count":1770,
			"type":"SCALAR"
		}
	],
	"bufferViews":[
		{
			"buffer":0,
			"byteLength":3744,
			"byteOffset":0,
			"target":34962
		},
		{
			"buffer":0,
			"byteLength":3744,
			"byteOffset":3744,
			"target":34962
		},
		{
			"buffer":0,
			"byteLength":2496,
			"byteOffset":7488,
			"target":34962
		},
		{
			"buffer":0,
			"byteLength":2496,
			"byteOffset":9984,
			"target":34962
		},
		{
			"buffer":0,
			"byteLength":2496,
			"byteOffset":12480,
			"target":34962
		},
		{
			"buffer":0,
			"byteLength":3540,
			"byteOffset":14976,
			"target":34963
		}
	],
	"samplers":[
		{
			"magFilter":9729,
			"minFilter":9987
		}
	],
	"buffers":[
		{
			"byteLength":18516,
			"uri":"ClusterRockC.bin"
		}
	]
}
