{
	"asset":{
		"generator":"Khronos glTF Blender I/O v3.6.27",
		"version":"2.0"
	},
	"scene":0,
	"scenes":[
		{
			"name":"Scene",
			"nodes":[
				0
			]
		}
	],
	"nodes":[
		{
			"mesh":0,
			"name":"rock-cluster-low-01_rock-cluster-dark_0"
		}
	],
	"materials":[
		{
			"doubleSided":true,
			"name":"rock-cluster-dark",
			"normalTexture":{
				"index":0
			},
			"occlusionTexture":{
				"index":1
			},
			"pbrMetallicRoughness":{
				"baseColorTexture":{
					"index":2
				},
				"metallicFactor":0,
				"metallicRoughnessTexture":{
					"index":1
				}
			}
		}
	],
	"meshes":[
		{
			"name":"rock-cluster-low-01_rock-cluster-dark_0",
			"primitives":[
				{
					"attributes":{
						"POSITION":0,
						"NORMAL":1,
						"TEXCOORD_0":2,
						"TEXCOORD_1":3,
						"TEXCOORD_2":4
					},
					"indices":5,
					"material":0
				}
			]
		}
	],
	"textures":[
		{
			"sampler":0,
			"source":0
		},
		{
			"sampler":0,
			"source":1
		},
		{
			"sampler":0,
			"source":2
		}
	],
	"images":[
		{
			"mimeType":"image/png",
			"name":"rock-cluster-dark_normal",
			"uri":"rock-cluster-dark_normal.png"
		},
		{
			"mimeType":"image/png",
			"name":"rock-cluster-dark_metallicRoughness",
			"uri":"rock-cluster-dark_metallicRoughness.png"
		},
		{
			"mimeType":"image/png",
			"name":"rock-cluster-dark_baseColor",
			"uri":"rock-cluster-dark_baseColor.png"
		}
	],
	"accessors":[
		{
			"bufferView":0,
			"componentType":5126,
			"count":318,
			"max":[
				19.047616958618164,
				24.90559196472168,
				37.24849319458008
			],
			"min":[
				-23.705398559570312,
				-22.00168228149414,
				-39.28044128417969
			],
			"type":"VEC3"
		},
		{
			"bufferView":1,
			"componentType":5126,
			"count":318,
			"type":"VEC3"
		},
		{
			"bufferView":2,
			"componentType":5126,
			"count":318,
			"type":"VEC2"
		},
		{
			"bufferView":3,
			"componentType":5126,
			"count":318,
			"type":"VEC2"
		},
		{
			"bufferView":4,
			"componentType":5126,
			"count":318,
			"type":"VEC2"
		},
		{
			"bufferView":5,
			"componentType":5123,
			"count":1746,
			"type":"SCALAR"
		}
	],
	"bufferViews":[
		{
			"buffer":0,
			"byteLength":3816,
			"byteOffset":0,
			"target":34962
		},
		{
			"buffer":0,
			"byteLength":3816,
			"byteOffset":3816,
			"target":34962
		},
		{
			"buffer":0,
			"byteLength":2544,
			"byteOffset":7632,
			"target":34962
		},
		{
			"buffer":0,
			"byteLength":2544,
			"byteOffset":10176,
			"target":34962
		},
		{
			"buffer":0,
			"byteLength":2544,
			"byteOffset":12720,
			"target":34962
		},
		{
			"buffer":0,
			"byteLength":3492,
			"byteOffset":15264,
			"target":34963
		}
	],
	"samplers":[
		{
			"magFilter":9729,
			"minFilter":9987
		}
	],
	"buffers":[
		{
			"byteLength":18756,
			"uri":"ClusterRockA.bin"
		}
	]
}
