{
	"asset":{
		"generator":"Khronos glTF Blender I/O v3.6.27",
		"version":"2.0"
	},
	"extensionsUsed":[
		"KHR_materials_ior"
	],
	"scene":0,
	"scenes":[
		{
			"name":"Scene",
			"nodes":[
				0
			]
		}
	],
	"nodes":[
		{
			"mesh":0,
			"name":"House2_House2_M_0"
		}
	],
	"materials":[
		{
			"doubleSided":true,
			"extensions":{
				"KHR_materials_specular":{
					"specularColorFactor":[
						0,
						0,
						0
					]
				},
				"KHR_materials_ior":{
					"ior":1000
				}
			},
			"name":"House2_M",
			"normalTexture":{
				"index":0
			},
			"occlusionTexture":{
				"index":1
			},
			"pbrMetallicRoughness":{
				"baseColorTexture":{
					"index":2
				},
				"metallicFactor":0,
				"metallicRoughnessTexture":{
					"index":1
				}
			}
		}
	],
	"meshes":[
		{
			"name":"House2_House2_M_0",
			"primitives":[
				{
					"attributes":{
						"POSITION":0,
						"NORMAL":1,
						"TEXCOORD_0":2
					},
					"indices":3,
					"material":0
				}
			]
		}
	],
	"textures":[
		{
			"sampler":0,
			"source":0
		},
		{
			"sampler":0,
			"source":1
		},
		{
			"sampler":0,
			"source":2
		}
	],
	"images":[
		{
			"mimeType":"image/png",
			"name":"House2_M_normal",
			"uri":"House2_M_normal.png"
		},
		{
			"mimeType":"image/png",
			"name":"House2_M_occlusion-House2_M_specularGlossiness.png",
			"uri":"House2_M_occlusion-House2_M_specularGlossiness_png.png"
		},
		{
			"mimeType":"image/png",
			"name":"House2_M_diffuse",
			"uri":"House2_M_diffuse.png"
		}
	],
	"accessors":[
		{
			"bufferView":0,
			"componentType":5126,
			"count":1270,
			"max":[
				14.556950569152832,
				53.81493377685547,
				33.461090087890625
			],
			"min":[
				-14.490842819213867,
				-0.14978599548339844,
				-34.77164840698242
			],
			"type":"VEC3"
		},
		{
			"bufferView":1,
			"componentType":5126,
			"count":1270,
			"type":"VEC3"
		},
		{
			"bufferView":2,
			"componentType":5126,
			"count":1270,
			"type":"VEC2"
		},
		{
			"bufferView":3,
			"componentType":5123,
			"count":2085,
			"type":"SCALAR"
		}
	],
	"bufferViews":[
		{
			"buffer":0,
			"byteLength":15240,
			"byteOffset":0,
			"target":34962
		},
		{
			"buffer":0,
			"byteLength":15240,
			"byteOffset":15240,
			"target":34962
		},
		{
			"buffer":0,
			"byteLength":10160,
			"byteOffset":30480,
			"target":34962
		},
		{
			"buffer":0,
			"byteLength":4170,
			"byteOffset":40640,
			"target":34963
		}
	],
	"samplers":[
		{
			"magFilter":9729,
			"minFilter":9987
		}
	],
	"buffers":[
		{
			"byteLength":44812,
			"uri":"HouseB.bin"
		}
	]
}
