{
	"asset":{
		"generator":"Khronos glTF Blender I/O v4.5.49",
		"version":"2.0"
	},
	"extensionsUsed":[
		"KHR_materials_specular",
		"KHR_materials_ior"
	],
	"scene":0,
	"scenes":[
		{
			"name":"Scene",
			"nodes":[
				0
			]
		}
	],
	"nodes":[
		{
			"mesh":0,
			"name":"House1_House1_M_0"
		}
	],
	"materials":[
		{
			"doubleSided":true,
			"extensions":{
				"KHR_materials_specular":{
					"specularColorFactor":[
						0,
						0,
						0
					],
					"specularColorTexture":{
						"index":0
					}
				},
				"KHR_materials_ior":{
					"ior":1000
				}
			},
			"name":"House1_M",
			"normalTexture":{
				"index":1
			},
			"occlusionTexture":{
				"index":2
			},
			"pbrMetallicRoughness":{
				"baseColorTexture":{
					"index":3
				},
				"metallicFactor":0,
				"metallicRoughnessTexture":{
					"index":2
				}
			}
		}
	],
	"meshes":[
		{
			"name":"House1_House1_M_0",
			"primitives":[
				{
					"attributes":{
						"POSITION":0,
						"NORMAL":1,
						"TEXCOORD_0":2
					},
					"indices":3,
					"material":0
				}
			]
		}
	],
	"textures":[
		{
			"sampler":0,
			"source":0
		},
		{
			"sampler":0,
			"source":1
		},
		{
			"sampler":0,
			"source":2
		},
		{
			"sampler":0,
			"source":3
		}
	],
	"images":[
		{
			"mimeType":"image/png",
			"name":"House1_M_specularGlossiness",
			"uri":"House1_M_specularGlossiness.png"
		},
		{
			"mimeType":"image/png",
			"name":"House1_M_normal",
			"uri":"House1_M_normal.png"
		},
		{
			"mimeType":"image/png",
			"name":"House1_M_occlusion-House1_M_specularGlossiness.png",
			"uri":"House1_M_occlusion-House1_M_specularGlossiness.png.png"
		},
		{
			"mimeType":"image/png",
			"name":"House1_M_diffuse",
			"uri":"House1_M_diffuse.png"
		}
	],
	"accessors":[
		{
			"bufferView":0,
			"componentType":5126,
			"count":1256,
			"max":[
				9.694561958312988,
				58.053184509277344,
				19.198867797851562
			],
			"min":[
				-9.696035385131836,
				0.2634239196777344,
				-9.195333480834961
			],
			"type":"VEC3"
		},
		{
			"bufferView":1,
			"componentType":5126,
			"count":1256,
			"type":"VEC3"
		},
		{
			"bufferView":2,
			"componentType":5126,
			"count":1256,
			"type":"VEC2"
		},
		{
			"bufferView":3,
			"componentType":5123,
			"count":2073,
			"type":"SCALAR"
		}
	],
	"bufferViews":[
		{
			"buffer":0,
			"byteLength":15072,
			"byteOffset":0,
			"target":34962
		},
		{
			"buffer":0,
			"byteLength":15072,
			"byteOffset":15072,
			"target":34962
		},
		{
			"buffer":0,
			"byteLength":10048,
			"byteOffset":30144,
			"target":34962
		},
		{
			"buffer":0,
			"byteLength":4146,
			"byteOffset":40192,
			"target":34963
		}
	],
	"samplers":[
		{
			"magFilter":9729,
			"minFilter":9987
		}
	],
	"buffers":[
		{
			"byteLength":44340,
			"uri":"HouseA.bin"
		}
	]
}
