{
	"asset":{
		"generator":"Khronos glTF Blender I/O v3.6.27",
		"version":"2.0"
	},
	"extensionsUsed":[
		"KHR_materials_ior"
	],
	"scene":0,
	"scenes":[
		{
			"name":"Scene",
			"nodes":[
				0
			]
		}
	],
	"nodes":[
		{
			"mesh":0,
			"name":"House3_House3_M_0"
		}
	],
	"materials":[
		{
			"doubleSided":true,
			"extensions":{
				"KHR_materials_specular":{
					"specularColorFactor":[
						0,
						0,
						0
					]
				},
				"KHR_materials_ior":{
					"ior":1000
				}
			},
			"name":"House3_M",
			"normalTexture":{
				"index":0
			},
			"occlusionTexture":{
				"index":1
			},
			"pbrMetallicRoughness":{
				"baseColorTexture":{
					"index":2
				},
				"metallicFactor":0,
				"metallicRoughnessTexture":{
					"index":1
				}
			}
		}
	],
	"meshes":[
		{
			"name":"House3_House3_M_0",
			"primitives":[
				{
					"attributes":{
						"POSITION":0,
						"NORMAL":1,
						"TEXCOORD_0":2
					},
					"indices":3,
					"material":0
				}
			]
		}
	],
	"textures":[
		{
			"sampler":0,
			"source":0
		},
		{
			"sampler":0,
			"source":1
		},
		{
			"sampler":0,
			"source":2
		}
	],
	"images":[
		{
			"mimeType":"image/png",
			"name":"House3_M_normal",
			"uri":"House3_M_normal.png"
		},
		{
			"mimeType":"image/png",
			"name":"House3_M_occlusion-House3_M_specularGlossiness.png",
			"uri":"House3_M_occlusion-House3_M_specularGlossiness_png.png"
		},
		{
			"mimeType":"image/png",
			"name":"House3_M_diffuse",
			"uri":"House3_M_diffuse.png"
		}
	],
	"accessors":[
		{
			"bufferView":0,
			"componentType":5126,
			"count":1118,
			"max":[
				38.65901184082031,
				72.35177612304688,
				15.487995147705078
			],
			"min":[
				-41.500244140625,
				0.0136871337890625,
				-19.63706398010254
			],
			"type":"VEC3"
		},
		{
			"bufferView":1,
			"componentType":5126,
			"count":1118,
			"type":"VEC3"
		},
		{
			"bufferView":2,
			"componentType":5126,
			"count":1118,
			"type":"VEC2"
		},
		{
			"bufferView":3,
			"componentType":5123,
			"count":2079,
			"type":"SCALAR"
		}
	],
	"bufferViews":[
		{
			"buffer":0,
			"byteLength":13416,
			"byteOffset":0,
			"target":34962
		},
		{
			"buffer":0,
			"byteLength":13416,
			"byteOffset":13416,
			"target":34962
		},
		{
			"buffer":0,
			"byteLength":8944,
			"byteOffset":26832,
			"target":34962
		},
		{
			"buffer":0,
			"byteLength":4158,
			"byteOffset":35776,
			"target":34963
		}
	],
	"samplers":[
		{
			"magFilter":9729,
			"minFilter":9987
		}
	],
	"buffers":[
		{
			"byteLength":39936,
			"uri":"HouseC.bin"
		}
	]
}
