{
	"asset":{
		"generator":"Khronos glTF Blender I/O v4.5.49",
		"version":"2.0"
	},
	"extensionsUsed":[
		"KHR_materials_specular",
		"KHR_materials_ior"
	],
	"scene":0,
	"scenes":[
		{
			"name":"Scene",
			"nodes":[
				0
			]
		}
	],
	"nodes":[
		{
			"mesh":0,
			"name":"House4_House4_M_0"
		}
	],
	"materials":[
		{
			"doubleSided":true,
			"extensions":{
				"KHR_materials_specular":{
					"specularColorFactor":[
						0,
						0,
						0
					],
					"specularColorTexture":{
						"index":0
					}
				},
				"KHR_materials_ior":{
					"ior":1000
				}
			},
			"name":"House4_M",
			"normalTexture":{
				"index":1
			},
			"occlusionTexture":{
				"index":2
			},
			"pbrMetallicRoughness":{
				"baseColorTexture":{
					"index":3
				},
				"metallicFactor":0,
				"metallicRoughnessTexture":{
					"index":2
				}
			}
		}
	],
	"meshes":[
		{
			"name":"House4_House4_M_0",
			"primitives":[
				{
					"attributes":{
						"POSITION":0,
						"NORMAL":1,
						"TEXCOORD_0":2
					},
					"indices":3,
					"material":0
				}
			]
		}
	],
	"textures":[
		{
			"sampler":0,
			"source":0
		},
		{
			"sampler":0,
			"source":1
		},
		{
			"sampler":0,
			"source":2
		},
		{
			"sampler":0,
			"source":3
		}
	],
	"images":[
		{
			"mimeType":"image/png",
			"name":"House4_M_specularGlossiness",
			"uri":"House4_M_specularGlossiness.png"
		},
		{
			"mimeType":"image/png",
			"name":"House4_M_normal",
			"uri":"House4_M_normal.png"
		},
		{
			"mimeType":"image/png",
			"name":"House4_M_occlusion-House4_M_specularGlossiness.png",
			"uri":"House4_M_occlusion-House4_M_specularGlossiness.png.png"
		},
		{
			"mimeType":"image/png",
			"name":"House4_M_diffuse",
			"uri":"House4_M_diffuse.png"
		}
	],
	"accessors":[
		{
			"bufferView":0,
			"componentType":5126,
			"count":2496,
			"max":[
				54.610816955566406,
				83.52790832519531,
				31.99980354309082
			],
			"min":[
				-41.21479797363281,
				-0.1727142333984375,
				-17.297405242919922
			],
			"type":"VEC3"
		},
		{
			"bufferView":1,
			"componentType":5126,
			"count":2496,
			"type":"VEC3"
		},
		{
			"bufferView":2,
			"componentType":5126,
			"count":2496,
			"type":"VEC2"
		},
		{
			"bufferView":3,
			"componentType":5123,
			"count":4452,
			"type":"SCALAR"
		}
	],
	"bufferViews":[
		{
			"buffer":0,
			"byteLength":29952,
			"byteOffset":0,
			"target":34962
		},
		{
			"buffer":0,
			"byteLength":29952,
			"byteOffset":29952,
			"target":34962
		},
		{
			"buffer":0,
			"byteLength":19968,
			"byteOffset":59904,
			"target":34962
		},
		{
			"buffer":0,
			"byteLength":8904,
			"byteOffset":79872,
			"target":34963
		}
	],
	"samplers":[
		{
			"magFilter":9729,
			"minFilter":9987
		}
	],
	"buffers":[
		{
			"byteLength":88776,
			"uri":"HouseD.bin"
		}
	]
}
