{
	"asset":{
		"generator":"Khronos glTF Blender I/O v4.5.49",
		"version":"2.0"
	},
	"scene":0,
	"scenes":[
		{
			"name":"Scene",
			"nodes":[
				0
			]
		}
	],
	"nodes":[
		{
			"mesh":0,
			"name":"default9_Material_0",
			"scale":[
				0.009999999776482582,
				0.010000001639127731,
				0.010000001639127731
			]
		}
	],
	"materials":[
		{
			"doubleSided":true,
			"name":"Material.001",
			"pbrMetallicRoughness":{
				"baseColorTexture":{
					"index":0
				},
				"metallicRoughnessTexture":{
					"index":1
				}
			}
		}
	],
	"meshes":[
		{
			"name":"default9_Material_0",
			"primitives":[
				{
					"attributes":{
						"POSITION":0,
						"NORMAL":1,
						"TEXCOORD_0":2,
						"TEXCOORD_1":3,
						"TEXCOORD_2":4,
						"TEXCOORD_3":5,
						"TEXCOORD_4":6,
						"TEXCOORD_5":7,
						"TEXCOORD_6":8,
						"TEXCOORD_7":9
					},
					"indices":10,
					"material":0
				}
			]
		}
	],
	"textures":[
		{
			"sampler":0,
			"source":0
		},
		{
			"sampler":0,
			"source":1
		}
	],
	"images":[
		{
			"mimeType":"image/jpeg",
			"name":"Material_baseColor",
			"uri":"Material_baseColor.jpg"
		},
		{
			"mimeType":"image/jpeg",
			"name":"Material_metallicRoughness",
			"uri":"Material_metallicRoughness.jpg"
		}
	],
	"accessors":[
		{
			"bufferView":0,
			"componentType":5126,
			"count":8348,
			"max":[
				0.4957399368286133,
				0.44739481806755066,
				0.449909508228302
			],
			"min":[
				-0.38693714141845703,
				0.23163729906082153,
				-0.38027679920196533
			],
			"type":"VEC3"
		},
		{
			"bufferView":1,
			"componentType":5126,
			"count":8348,
			"type":"VEC3"
		},
		{
			"bufferView":2,
			"componentType":5126,
			"count":8348,
			"type":"VEC2"
		},
		{
			"bufferView":3,
			"componentType":5126,
			"count":8348,
			"type":"VEC2"
		},
		{
			"bufferView":4,
			"componentType":5126,
			"count":8348,
			"type":"VEC2"
		},
		{
			"bufferView":5,
			"componentType":5126,
			"count":8348,
			"type":"VEC2"
		},
		{
			"bufferView":6,
			"componentType":5126,
			"count":8348,
			"type":"VEC2"
		},
		{
			"bufferView":7,
			"componentType":5126,
			"count":8348,
			"type":"VEC2"
		},
		{
			"bufferView":8,
			"componentType":5126,
			"count":8348,
			"type":"VEC2"
		},
		{
			"bufferView":9,
			"componentType":5126,
			"count":8348,
			"type":"VEC2"
		},
		{
			"bufferView":10,
			"componentType":5123,
			"count":19200,
			"type":"SCALAR"
		}
	],
	"bufferViews":[
		{
			"buffer":0,
			"byteLength":100176,
			"byteOffset":0,
			"target":34962
		},
		{
			"buffer":0,
			"byteLength":100176,
			"byteOffset":100176,
			"target":34962
		},
		{
			"buffer":0,
			"byteLength":66784,
			"byteOffset":200352,
			"target":34962
		},
		{
			"buffer":0,
			"byteLength":66784,
			"byteOffset":267136,
			"target":34962
		},
		{
			"buffer":0,
			"byteLength":66784,
			"byteOffset":333920,
			"target":34962
		},
		{
			"buffer":0,
			"byteLength":66784,
			"byteOffset":400704,
			"target":34962
		},
		{
			"buffer":0,
			"byteLength":66784,
			"byteOffset":467488,
			"target":34962
		},
		{
			"buffer":0,
			"byteLength":66784,
			"byteOffset":534272,
			"target":34962
		},
		{
			"buffer":0,
			"byteLength":66784,
			"byteOffset":601056,
			"target":34962
		},
		{
			"buffer":0,
			"byteLength":66784,
			"byteOffset":667840,
			"target":34962
		},
		{
			"buffer":0,
			"byteLength":38400,
			"byteOffset":734624,
			"target":34963
		}
	],
	"samplers":[
		{
			"magFilter":9729,
			"minFilter":9987
		}
	],
	"buffers":[
		{
			"byteLength":773024,
			"uri":"StylizedGrassPatch.bin"
		}
	]
}
