{
	"asset":{
		"generator":"Khronos glTF Blender I/O v3.6.27",
		"version":"2.0"
	},
	"scene":0,
	"scenes":[
		{
			"name":"Scene",
			"nodes":[
				0
			]
		}
	],
	"nodes":[
		{
			"mesh":0,
			"name":"Wood_Wood_06_0"
		}
	],
	"materials":[
		{
			"doubleSided":true,
			"name":"Wood_06",
			"pbrMetallicRoughness":{
				"baseColorTexture":{
					"index":0
				},
				"metallicFactor":0,
				"roughnessFactor":0.7763931751251221
			}
		}
	],
	"meshes":[
		{
			"name":"Wood_Wood_06_0",
			"primitives":[
				{
					"attributes":{
						"POSITION":0,
						"NORMAL":1,
						"TEXCOORD_0":2
					},
					"indices":3,
					"material":0
				}
			]
		}
	],
	"textures":[
		{
			"sampler":0,
			"source":0
		}
	],
	"images":[
		{
			"mimeType":"image/png",
			"name":"Wood_06_baseColor",
			"uri":"Wood_06_baseColor.png"
		}
	],
	"accessors":[
		{
			"bufferView":0,
			"componentType":5126,
			"count":427,
			"max":[
				0.42881569266319275,
				4.256621360778809,
				6.046511650085449
			],
			"min":[
				-0.47088366746902466,
				-0.040234923362731934,
				-0.16499018669128418
			],
			"type":"VEC3"
		},
		{
			"bufferView":1,
			"componentType":5126,
			"count":427,
			"type":"VEC3"
		},
		{
			"bufferView":2,
			"componentType":5126,
			"count":427,
			"type":"VEC2"
		},
		{
			"bufferView":3,
			"componentType":5123,
			"count":648,
			"type":"SCALAR"
		}
	],
	"bufferViews":[
		{
			"buffer":0,
			"byteLength":5124,
			"byteOffset":0,
			"target":34962
		},
		{
			"buffer":0,
			"byteLength":5124,
			"byteOffset":5124,
			"target":34962
		},
		{
			"buffer":0,
			"byteLength":3416,
			"byteOffset":10248,
			"target":34962
		},
		{
			"buffer":0,
			"byteLength":1296,
			"byteOffset":13664,
			"target":34963
		}
	],
	"samplers":[
		{
			"magFilter":9729,
			"minFilter":9987
		}
	],
	"buffers":[
		{
			"byteLength":14960,
			"uri":"fence01.bin"
		}
	]
}
