{
	"asset":{
		"generator":"Khronos glTF Blender I/O v3.6.27",
		"version":"2.0"
	},
	"scene":0,
	"scenes":[
		{
			"name":"Scene",
			"nodes":[
				0
			]
		}
	],
	"nodes":[
		{
			"mesh":0,
			"name":"Sweep_1__0"
		}
	],
	"materials":[
		{
			"doubleSided":true,
			"name":"Scene_-_Root",
			"normalTexture":{
				"index":0
			},
			"occlusionTexture":{
				"index":1
			},
			"pbrMetallicRoughness":{
				"baseColorTexture":{
					"index":2
				},
				"metallicFactor":0,
				"metallicRoughnessTexture":{
					"index":1
				},
				"roughnessFactor":0.9346417784690857
			}
		}
	],
	"meshes":[
		{
			"name":"Sweep_1__0",
			"primitives":[
				{
					"attributes":{
						"POSITION":0,
						"NORMAL":1,
						"TEXCOORD_0":2
					},
					"indices":3,
					"material":0
				}
			]
		}
	],
	"textures":[
		{
			"sampler":0,
			"source":0
		},
		{
			"sampler":0,
			"source":1
		},
		{
			"sampler":0,
			"source":2
		}
	],
	"images":[
		{
			"mimeType":"image/png",
			"name":"Scene_-_Root_normal",
			"uri":"Scene_-_Root_normal.png"
		},
		{
			"mimeType":"image/png",
			"name":"Scene_-_Root_metallicRoughness",
			"uri":"Scene_-_Root_metallicRoughness.png"
		},
		{
			"mimeType":"image/jpeg",
			"name":"Scene_-_Root_baseColor",
			"uri":"Scene_-_Root_baseColor.jpg"
		}
	],
	"accessors":[
		{
			"bufferView":0,
			"componentType":5126,
			"count":1572,
			"max":[
				0.9284329414367676,
				19.463735580444336,
				0.5285556316375732
			],
			"min":[
				-1.420931100845337,
				-0.018186569213867188,
				-5.672647953033447
			],
			"type":"VEC3"
		},
		{
			"bufferView":1,
			"componentType":5126,
			"count":1572,
			"type":"VEC3"
		},
		{
			"bufferView":2,
			"componentType":5126,
			"count":1572,
			"type":"VEC2"
		},
		{
			"bufferView":3,
			"componentType":5123,
			"count":4224,
			"type":"SCALAR"
		}
	],
	"bufferViews":[
		{
			"buffer":0,
			"byteLength":18864,
			"byteOffset":0,
			"target":34962
		},
		{
			"buffer":0,
			"byteLength":18864,
			"byteOffset":18864,
			"target":34962
		},
		{
			"buffer":0,
			"byteLength":12576,
			"byteOffset":37728,
			"target":34962
		},
		{
			"buffer":0,
			"byteLength":8448,
			"byteOffset":50304,
			"target":34963
		}
	],
	"samplers":[
		{
			"magFilter":9729,
			"minFilter":9987
		}
	],
	"buffers":[
		{
			"byteLength":58752,
			"uri":"dreamcaster.bin"
		}
	]
}
