{
	"asset":{
		"generator":"Khronos glTF Blender I/O v3.6.27",
		"version":"2.0"
	},
	"scene":0,
	"scenes":[
		{
			"name":"Scene",
			"nodes":[
				0
			]
		}
	],
	"nodes":[
		{
			"mesh":0,
			"name":"StreetLantern_Material_0"
		}
	],
	"materials":[
		{
			"doubleSided":true,
			"emissiveFactor":[
				1,
				1,
				1
			],
			"emissiveTexture":{
				"index":0
			},
			"name":"Material.001",
			"pbrMetallicRoughness":{
				"baseColorTexture":{
					"index":1
				},
				"metallicFactor":0,
				"roughnessFactor":0.8542730808258057
			}
		}
	],
	"meshes":[
		{
			"name":"StreetLantern_Material_0",
			"primitives":[
				{
					"attributes":{
						"POSITION":0,
						"NORMAL":1,
						"TEXCOORD_0":2,
						"TEXCOORD_1":3
					},
					"indices":4,
					"material":0
				}
			]
		}
	],
	"textures":[
		{
			"sampler":0,
			"source":0
		},
		{
			"sampler":0,
			"source":1
		}
	],
	"images":[
		{
			"mimeType":"image/png",
			"name":"Material_emissive",
			"uri":"Material_emissive.png"
		},
		{
			"mimeType":"image/png",
			"name":"Material_baseColor",
			"uri":"Material_baseColor.png"
		}
	],
	"accessors":[
		{
			"bufferView":0,
			"componentType":5126,
			"count":3056,
			"max":[
				1.2856405973434448,
				0.29441356658935547,
				0.9409561157226562
			],
			"min":[
				-0.5943922400474548,
				-3.0537471771240234,
				-0.939903736114502
			],
			"type":"VEC3"
		},
		{
			"bufferView":1,
			"componentType":5126,
			"count":3056,
			"type":"VEC3"
		},
		{
			"bufferView":2,
			"componentType":5126,
			"count":3056,
			"type":"VEC2"
		},
		{
			"bufferView":3,
			"componentType":5126,
			"count":3056,
			"type":"VEC2"
		},
		{
			"bufferView":4,
			"componentType":5123,
			"count":3864,
			"type":"SCALAR"
		}
	],
	"bufferViews":[
		{
			"buffer":0,
			"byteLength":36672,
			"byteOffset":0,
			"target":34962
		},
		{
			"buffer":0,
			"byteLength":36672,
			"byteOffset":36672,
			"target":34962
		},
		{
			"buffer":0,
			"byteLength":24448,
			"byteOffset":73344,
			"target":34962
		},
		{
			"buffer":0,
			"byteLength":24448,
			"byteOffset":97792,
			"target":34962
		},
		{
			"buffer":0,
			"byteLength":7728,
			"byteOffset":122240,
			"target":34963
		}
	],
	"samplers":[
		{
			"magFilter":9729,
			"minFilter":9987
		}
	],
	"buffers":[
		{
			"byteLength":129968,
			"uri":"fantasy_lantern.bin"
		}
	]
}
