{
	"asset":{
		"generator":"Khronos glTF Blender I/O v3.6.27",
		"version":"2.0"
	},
	"scene":0,
	"scenes":[
		{
			"name":"Scene",
			"nodes":[
				3
			]
		}
	],
	"nodes":[
		{
			"mesh":0,
			"name":"defaultMaterial"
		},
		{
			"children":[
				0
			],
			"name":"g"
		},
		{
			"children":[
				1
			],
			"name":"Collada visual scene group",
			"rotation":[
				0.70710688829422,
				0,
				0,
				0.7071066498756409
			]
		},
		{
			"children":[
				2
			],
			"name":"Sketchfab_model",
			"rotation":[
				-0.70710688829422,
				0,
				0,
				0.7071066498756409
			]
		}
	],
	"materials":[
		{
			"doubleSided":true,
			"name":"initialShadingGroup",
			"normalTexture":{
				"index":0
			},
			"occlusionTexture":{
				"index":1
			},
			"pbrMetallicRoughness":{
				"baseColorTexture":{
					"index":2
				},
				"metallicRoughnessTexture":{
					"index":1
				}
			}
		}
	],
	"meshes":[
		{
			"name":"defaultMaterial",
			"primitives":[
				{
					"attributes":{
						"POSITION":0,
						"NORMAL":1,
						"TEXCOORD_0":2
					},
					"indices":3,
					"material":0
				}
			]
		}
	],
	"textures":[
		{
			"sampler":0,
			"source":0
		},
		{
			"sampler":0,
			"source":1
		},
		{
			"sampler":0,
			"source":2
		}
	],
	"images":[
		{
			"mimeType":"image/png",
			"name":"initialShadingGroup_normal",
			"uri":"initialShadingGroup_normal.png"
		},
		{
			"mimeType":"image/png",
			"name":"initialShadingGroup_metallicRoughness",
			"uri":"initialShadingGroup_metallicRoughness.png"
		},
		{
			"mimeType":"image/jpeg",
			"name":"initialShadingGroup_baseColor",
			"uri":"initialShadingGroup_baseColor.jpg"
		}
	],
	"accessors":[
		{
			"bufferView":0,
			"componentType":5126,
			"count":1460,
			"max":[
				2.1514766216278076,
				12.057405471801758,
				2.153289794921875
			],
			"min":[
				-2.1478445529937744,
				-0.046062469482421875,
				-2.146031379699707
			],
			"type":"VEC3"
		},
		{
			"bufferView":1,
			"componentType":5126,
			"count":1460,
			"type":"VEC3"
		},
		{
			"bufferView":2,
			"componentType":5126,
			"count":1460,
			"type":"VEC2"
		},
		{
			"bufferView":3,
			"componentType":5123,
			"count":3726,
			"type":"SCALAR"
		}
	],
	"bufferViews":[
		{
			"buffer":0,
			"byteLength":17520,
			"byteOffset":0,
			"target":34962
		},
		{
			"buffer":0,
			"byteLength":17520,
			"byteOffset":17520,
			"target":34962
		},
		{
			"buffer":0,
			"byteLength":11680,
			"byteOffset":35040,
			"target":34962
		},
		{
			"buffer":0,
			"byteLength":7452,
			"byteOffset":46720,
			"target":34963
		}
	],
	"samplers":[
		{
			"magFilter":9729,
			"minFilter":9987
		}
	],
	"buffers":[
		{
			"byteLength":54172,
			"uri":"stone_lantern.bin"
		}
	]
}
