{
	"asset":{
		"generator":"Khronos glTF Blender I/O v3.6.27",
		"version":"2.0"
	},
	"scene":0,
	"scenes":[
		{
			"name":"Scene",
			"nodes":[
				0
			]
		}
	],
	"nodes":[
		{
			"mesh":0,
			"name":"defaultMaterial"
		}
	],
	"materials":[
		{
			"doubleSided":true,
			"emissiveFactor":[
				1,
				1,
				1
			],
			"emissiveTexture":{
				"index":0
			},
			"name":"standardSurface1",
			"normalTexture":{
				"index":1
			},
			"occlusionTexture":{
				"index":2
			},
			"pbrMetallicRoughness":{
				"baseColorTexture":{
					"index":3
				},
				"metallicRoughnessTexture":{
					"index":2
				}
			}
		}
	],
	"meshes":[
		{
			"name":"defaultMaterial",
			"primitives":[
				{
					"attributes":{
						"POSITION":0,
						"NORMAL":1,
						"TEXCOORD_0":2
					},
					"indices":3,
					"material":0
				}
			]
		}
	],
	"textures":[
		{
			"sampler":0,
			"source":0
		},
		{
			"sampler":0,
			"source":1
		},
		{
			"sampler":0,
			"source":2
		},
		{
			"sampler":0,
			"source":3
		}
	],
	"images":[
		{
			"mimeType":"image/jpeg",
			"name":"standardSurface1_emissive",
			"uri":"standardSurface1_emissive.jpg"
		},
		{
			"mimeType":"image/png",
			"name":"standardSurface1_normal",
			"uri":"standardSurface1_normal.png"
		},
		{
			"mimeType":"image/png",
			"name":"standardSurface1_metallicRoughness",
			"uri":"standardSurface1_metallicRoughness.png"
		},
		{
			"mimeType":"image/jpeg",
			"name":"standardSurface1_baseColor",
			"uri":"standardSurface1_baseColor.jpg"
		}
	],
	"accessors":[
		{
			"bufferView":0,
			"componentType":5126,
			"count":435,
			"max":[
				38.50996398925781,
				127.39505004882812,
				41.33842468261719
			],
			"min":[
				-39.79557800292969,
				-1.5076520442962646,
				-47.27702331542969
			],
			"type":"VEC3"
		},
		{
			"bufferView":1,
			"componentType":5126,
			"count":435,
			"type":"VEC3"
		},
		{
			"bufferView":2,
			"componentType":5126,
			"count":435,
			"type":"VEC2"
		},
		{
			"bufferView":3,
			"componentType":5123,
			"count":729,
			"type":"SCALAR"
		}
	],
	"bufferViews":[
		{
			"buffer":0,
			"byteLength":5220,
			"byteOffset":0,
			"target":34962
		},
		{
			"buffer":0,
			"byteLength":5220,
			"byteOffset":5220,
			"target":34962
		},
		{
			"buffer":0,
			"byteLength":3480,
			"byteOffset":10440,
			"target":34962
		},
		{
			"buffer":0,
			"byteLength":1458,
			"byteOffset":13920,
			"target":34963
		}
	],
	"samplers":[
		{
			"magFilter":9729,
			"minFilter":9987
		}
	],
	"buffers":[
		{
			"byteLength":15380,
			"uri":"hugeCrystal.bin"
		}
	]
}
