{
	"asset":{
		"generator":"Khronos glTF Blender I/O v3.6.27",
		"version":"2.0"
	},
	"scene":0,
	"scenes":[
		{
			"name":"Scene",
			"nodes":[
				0
			]
		}
	],
	"nodes":[
		{
			"mesh":0,
			"name":"defaultMaterial.001"
		}
	],
	"materials":[
		{
			"doubleSided":true,
			"emissiveFactor":[
				1,
				1,
				1
			],
			"emissiveTexture":{
				"index":0
			},
			"name":"standardSurface1",
			"normalTexture":{
				"index":1
			},
			"occlusionTexture":{
				"index":2
			},
			"pbrMetallicRoughness":{
				"baseColorTexture":{
					"index":3
				},
				"metallicRoughnessTexture":{
					"index":2
				}
			}
		}
	],
	"meshes":[
		{
			"name":"defaultMaterial.001",
			"primitives":[
				{
					"attributes":{
						"POSITION":0,
						"NORMAL":1,
						"TEXCOORD_0":2
					},
					"indices":3,
					"material":0
				}
			]
		}
	],
	"textures":[
		{
			"sampler":0,
			"source":0
		},
		{
			"sampler":0,
			"source":1
		},
		{
			"sampler":0,
			"source":2
		},
		{
			"sampler":0,
			"source":3
		}
	],
	"images":[
		{
			"mimeType":"image/jpeg",
			"name":"standardSurface1_emissive",
			"uri":"standardSurface1_emissive.jpg"
		},
		{
			"mimeType":"image/png",
			"name":"standardSurface1_normal",
			"uri":"standardSurface1_normal.png"
		},
		{
			"mimeType":"image/png",
			"name":"standardSurface1_metallicRoughness",
			"uri":"standardSurface1_metallicRoughness.png"
		},
		{
			"mimeType":"image/jpeg",
			"name":"standardSurface1_baseColor",
			"uri":"standardSurface1_baseColor.jpg"
		}
	],
	"accessors":[
		{
			"bufferView":0,
			"componentType":5126,
			"count":278,
			"max":[
				29.276092529296875,
				60.7115364074707,
				33.628875732421875
			],
			"min":[
				-26.25201416015625,
				-0.32168999314308167,
				-28.177276611328125
			],
			"type":"VEC3"
		},
		{
			"bufferView":1,
			"componentType":5126,
			"count":278,
			"type":"VEC3"
		},
		{
			"bufferView":2,
			"componentType":5126,
			"count":278,
			"type":"VEC2"
		},
		{
			"bufferView":3,
			"componentType":5123,
			"count":465,
			"type":"SCALAR"
		}
	],
	"bufferViews":[
		{
			"buffer":0,
			"byteLength":3336,
			"byteOffset":0,
			"target":34962
		},
		{
			"buffer":0,
			"byteLength":3336,
			"byteOffset":3336,
			"target":34962
		},
		{
			"buffer":0,
			"byteLength":2224,
			"byteOffset":6672,
			"target":34962
		},
		{
			"buffer":0,
			"byteLength":930,
			"byteOffset":8896,
			"target":34963
		}
	],
	"samplers":[
		{
			"magFilter":9729,
			"minFilter":9987
		}
	],
	"buffers":[
		{
			"byteLength":9828,
			"uri":"largeCrystal.bin"
		}
	]
}
